<?xml version="1.0" encoding="UTF-8" standalone="no"?>
<!-- Created with Inkscape (http://www.inkscape.org/) -->

<svg
   xmlns:dc="http://purl.org/dc/elements/1.1/"
   xmlns:cc="http://creativecommons.org/ns#"
   xmlns:rdf="http://www.w3.org/1999/02/22-rdf-syntax-ns#"
   xmlns:svg="http://www.w3.org/2000/svg"
   xmlns="http://www.w3.org/2000/svg"
   xmlns:sodipodi="http://sodipodi.sourceforge.net/DTD/sodipodi-0.dtd"
   xmlns:inkscape="http://www.inkscape.org/namespaces/inkscape"
   width="200"
   height="200"
   viewBox="0 0 52.916665 52.916668"
   version="1.1"
   id="svg868"
   inkscape:version="0.92.3 (2405546, 2018-03-11)"
   sodipodi:docname="aguila.svg">
  <defs
     id="defs862" />
  <sodipodi:namedview
     id="base"
     pagecolor="#ffffff"
     bordercolor="#666666"
     borderopacity="1.0"
     inkscape:pageopacity="0.0"
     inkscape:pageshadow="2"
     inkscape:zoom="2.5"
     inkscape:cx="100"
     inkscape:cy="132"
     inkscape:document-units="mm"
     inkscape:current-layer="layer1"
     showgrid="false"
     units="px"
     inkscape:window-width="1299"
     inkscape:window-height="713"
     inkscape:window-x="67"
     inkscape:window-y="27"
     inkscape:window-maximized="1" />
  <metadata
     id="metadata865">
    <rdf:RDF>
      <cc:Work
         rdf:about="">
        <dc:format>image/svg+xml</dc:format>
        <dc:type
           rdf:resource="http://purl.org/dc/dcmitype/StillImage" />
        <dc:title></dc:title>
      </cc:Work>
    </rdf:RDF>
  </metadata>
  <g
     inkscape:label="Capa 1"
     inkscape:groupmode="layer"
     id="layer1"
     transform="translate(0,-244.08332)">
    <g
       transform="matrix(0.07991762,0,0,0.07991762,1.5124006,164.51186)"
       id="g860">
      <path
         inkscape:export-ydpi="90"
         inkscape:export-xdpi="90"
         inkscape:export-filename="D:\!Закачалось D\path3794.png"
         id="path2998"
         d="m 314.2562,995.43144 c -20.22371,0.29597 -38.54326,4.60826 -52.2157,14.05696 -10.19789,7.0474 -29.03704,22.0691 -21.73286,30.1985 -25.12604,50.3539 -48.01105,113.4416 -30.64079,133.7455 -23.78766,56.221 -23.54533,103.0936 -91.89079,176.6426 -20.892642,22.4833 -39.964191,42.5535 -54.93231,58.5333 v 249.454 h 402.4684 l 6.75993,-14.9097 c 48.00247,-54.4709 78.21603,-141.7767 87.81588,-243.0415 8.68423,-91.6061 -20.40279,-132.0831 -50.0361,-159.269 -0.25872,-7.6777 -0.55611,-15.5204 -0.91606,-23.5018 -0.43524,-9.6506 -5.54615,-20.0444 -6.12816,-30.1353 -0.73503,-12.7441 1.27367,-25.3078 2.05325,-38.7591 0.95313,-16.4462 1.45339,-32.6252 -3.15885,-40.37 -12.01624,-20.8955 -24.99817,-39.7607 -39.83303,-55.1218 -31.70037,-32.8251 -95.93,-58.27896 -147.61281,-57.52266 z"
         style="fill:#d0cdc8;fill-opacity:1;stroke:none;stroke-width:1.01083028"
         inkscape:connector-curvature="0" />
      <path
         inkscape:export-ydpi="90"
         inkscape:export-xdpi="90"
         inkscape:export-filename="D:\!Закачалось D\path3794.png"
         id="path3000"
         d="m 195.89429,1211.2754 c -13.56585,41.4127 -25.5358,82.2137 -78.11823,138.7996 -20.890502,22.4811 -39.959692,42.522 -54.93231,58.5018 v 249.4855 h 276.20938 c 24.07937,-62.6795 36.21237,-126.4385 51.96299,-189.8781 0,0 -16.95396,18.4026 -18.037,21.2906 -1.08303,2.8881 14.78339,-52.3421 14.78339,-52.3421 l -24.19675,22.3962 c 0,0 12.63989,-36.462 13.36192,-37.9061 0.72201,-1.4439 -14.06589,7.2204 -15.50993,7.5812 -1.44405,0.3611 7.9287,-32.852 7.9287,-32.852 0,0 -13.71841,7.2205 -15.16245,7.5812 -1.44405,0.3611 20.2166,-37.5586 20.2166,-37.5586 l -42.96029,22.3962 14.08845,-40.4332 c 0,0 -21.2861,21.6608 -23.09115,22.7437 -1.80506,1.0831 2.14801,-18.4161 2.14801,-18.4161 0,0 -12.98737,15.889 -13.70939,18.4161 -0.0181,0.064 -0.0544,0.074 -0.0632,0.095 0.15864,-1.408 6.19133,-29.3456 6.19133,-29.3456 0,0 -30.6769,11.5387 -33.92599,12.9828 -3.2491,1.4439 -1.80054,-17.6896 -1.80054,-17.6896 l -22.39621,14.8151 -3.60108,-13.7095 -11.68773,25.1444 -2.40072,-14.3095 -20.56408,24.8917 -11.90884,-18.7636 -11.2139,15.889 -4.32762,-14.0884 -8.65523,5.7806 0.34747,-10.4873 -13.99368,2.9061 c 11.21894,-14.1678 -48.68381,21.1345 45.9296,-51.0469 10.60507,-11.9185 17.6583,-23.3457 -32.66245,-26.5659 9.63218,-15.8242 11.62385,-46.5131 11.7509,-66.3041 z"
         style="fill:#000000;stroke:none;stroke-width:1.01083028"
         inkscape:connector-curvature="0" />
      <path
         inkscape:export-ydpi="90"
         inkscape:export-xdpi="90"
         inkscape:export-filename="D:\!Закачалось D\path3794.png"
         sodipodi:nodetypes="ccc"
         inkscape:connector-curvature="0"
         id="path3770"
         d="m 472.5959,1642.1203 c 55.548,-133.7631 55.66829,-267.5263 36.75934,-401.2895 40.0983,203.967 2.30602,301.7667 -36.75934,401.2895 z"
         style="fill:#7a7368;fill-opacity:1;stroke:none;stroke-width:1.01083028" />
      <path
         inkscape:export-ydpi="90"
         inkscape:export-xdpi="90"
         inkscape:export-filename="D:\!Закачалось D\path3794.png"
         sodipodi:nodetypes="cccccccccccccccc"
         inkscape:connector-curvature="0"
         id="path3772"
         d="m 240.80783,1036.6123 c 11.58588,3.9149 25.16677,12.2134 40.33316,23.9957 l 49.26774,6.6371 c 28.07421,-5.5667 75.07348,-19.881 88.5798,-9.1899 l -0.51055,6.1266 c 1.58823,2.169 10.56142,3.5161 17.35857,5.1055 l -15.82693,-2.0422 13.2742,5.1054 c -5.89513,-0.8318 -13.52648,-0.2747 -16.33748,-3.5738 -0.19464,14.4925 -2.44796,28.6335 -30.06959,38.4434 -5.01514,4.1968 -11.10515,8.2742 -10.26357,13.1218 l -40.0779,1.5316 c -27.82346,4.7394 -47.52517,-0.9179 -68.66849,-1.787 -13.61977,-13.8882 -13.61446,-3.3207 -12.76366,-21.1876 -17.44318,-10.5952 -12.04599,-27.9165 -10.72148,-46.4597 -4.87891,-5.6328 -4.39281,-8.8655 -3.57382,-15.8269 z"
         style="fill:#070705;fill-opacity:1;stroke:none;stroke-width:1.01083028" />
      <path
         inkscape:export-ydpi="90"
         inkscape:export-xdpi="90"
         inkscape:export-filename="D:\!Закачалось D\path3794.png"
         sodipodi:nodetypes="sssss"
         inkscape:connector-curvature="0"
         id="path3774"
         d="m 364.8706,1075.9244 c -1.648,2.0083 -1.43057,3.6317 0.76583,5.3607 8.15921,6.4231 17.06353,15.3822 28.08005,10.9767 9.88869,-3.9545 15.18993,-28.4178 2.55273,-29.6117 -17.56213,-1.6591 -21.67554,1.4255 -31.39861,13.2743 z"
         style="fill:#a7890f;fill-opacity:1;stroke:none;stroke-width:1.01083028" />
      <ellipse
         inkscape:export-ydpi="90"
         inkscape:export-xdpi="90"
         inkscape:export-filename="D:\!Закачалось D\path3794.png"
         id="path3776"
         style="color:#000000;display:inline;overflow:visible;visibility:visible;fill:#000000;stroke:none;stroke-width:0.30324909;marker:none;enable-background:accumulate"
         cx="381.9006"
         cy="1075.3147"
         rx="11.281588"
         ry="12.545126" />
      <ellipse
         inkscape:export-ydpi="90"
         inkscape:export-xdpi="90"
         inkscape:export-filename="D:\!Закачалось D\path3794.png"
         id="path3778"
         style="color:#000000;display:inline;overflow:visible;visibility:visible;fill:#e6e6e6;fill-opacity:1;stroke:none;stroke-width:0.30324909;marker:none;enable-background:accumulate"
         cx="380.09555"
         cy="1074.9537"
         rx="1.3537906"
         ry="1.7148013" />
      <path
         inkscape:export-ydpi="90"
         inkscape:export-xdpi="90"
         inkscape:export-filename="D:\!Закачалось D\path3794.png"
         sodipodi:nodetypes="cssssscc"
         inkscape:connector-curvature="0"
         id="path3780"
         d="m 267.91144,1074.322 c -2.18252,1.5425 -4.8138,3.7918 -11.01083,6.8592 -3.57906,1.7716 -6.85104,0.7868 -9.02527,-1.8051 -3.78874,-4.5165 -3.50899,-5.1469 -3.79062,-7.4007 -0.88165,-7.0559 0.11863,-12.4808 1.44404,-16.6065 2.7248,-8.4817 7.73209,-7.9542 12.81589,-6.3177 1.49323,0.4807 2.66311,0.1597 5.05415,2.8881 z"
         style="fill:#a7890f;fill-opacity:1;stroke:none;stroke-width:1.01083028" />
      <ellipse
         inkscape:export-ydpi="90"
         inkscape:export-xdpi="90"
         inkscape:export-filename="D:\!Закачалось D\path3794.png"
         transform="rotate(3.8206031)"
         id="path3782"
         style="color:#000000;display:inline;overflow:visible;visibility:visible;fill:#000000;stroke:none;stroke-width:0.30324909;marker:none;enable-background:accumulate"
         cx="330.44687"
         cy="1043.9738"
         rx="7.2202163"
         ry="11.732851" />
      <path
         inkscape:export-ydpi="90"
         inkscape:export-xdpi="90"
         inkscape:export-filename="D:\!Закачалось D\path3794.png"
         sodipodi:nodetypes="scsscccsssssssccsccss"
         inkscape:connector-curvature="0"
         id="path3784"
         d="m 345.46984,1131.3187 c 9.95541,2.3796 13.08,-0.6942 17.35858,-2.2975 1.79108,0.936 3.35466,2.974 9.18984,2.8079 9.21411,-0.2622 11.21306,-4.2971 4.33964,-11.2319 -4.79875,-4.8417 -19.9113,-8.6226 -29.86696,-8.1688 2.01511,-14.1799 -11.23579,-11.2979 -19.91132,-13.5295 0.99798,-7.7896 -0.15771,-13.3586 -3.31854,-20.1665 2.81404,-3.9143 2.99671,-9.0826 2.42509,-11.615 -1.78031,-7.8873 -6.80748,-16.1573 -19.01785,-17.4861 -5.29352,-0.5761 -12.57828,1.863 -20.93241,8.6792 -2.61842,2.1364 -4.13598,8.2967 -6.6371,14.8059 -1.41976,3.6949 -2.02699,9.5877 -3.06328,17.869 -0.86066,6.8779 -0.19122,15.0444 -10.72147,15.0612 -3.69309,0.01 -8.00187,0.8154 -10.72147,5.616 -0.80905,1.4281 0.53396,3.2357 0.51054,4.8501 -2.18623,2.8775 -0.90052,4.6477 1.78691,4.595 3.78717,0.977 4.90098,5.5786 15.06112,3.8291 5.31721,-0.9156 4.69822,-1.9323 5.87129,-2.808 l 29.86696,4.5949 c 8.4886,-2.4646 21.31301,-3.7579 30.88805,0 1.62954,0.6396 1.59438,3.3286 6.89238,4.595 z"
         style="fill:#c17c11;fill-opacity:1;stroke:none;stroke-width:1.01083028" />
      <path
         inkscape:export-ydpi="90"
         inkscape:export-xdpi="90"
         inkscape:export-filename="D:\!Закачалось D\path3794.png"
         sodipodi:nodetypes="cssssssscssssssc"
         inkscape:connector-curvature="0"
         id="path3786"
         d="m 256.5396,1116.9212 c 2.16607,-1.2034 4.11285,-2.9392 6.49819,-3.6101 3.49885,-0.984 7.1981,-1.395 10.83032,-1.2635 9.72271,0.352 19.39395,1.614 29.06137,2.7076 3.63672,0.4114 7.17429,1.6369 10.83033,1.805 6.85303,0.3151 13.7385,-0.8993 20.57761,-0.361 6.22351,0.4898 12.34769,1.9459 18.41156,3.4296 5.2681,1.289 10.63327,2.5283 15.52346,4.8736 1.26538,0.6069 1.44404,2.4068 2.16607,3.6102 -0.72203,-0.6619 -1.24212,-1.6605 -2.16607,-1.9855 -5.66013,-1.9916 -11.48301,-3.5198 -17.32852,-4.8738 -4.81832,-1.1161 -9.69085,-2.1317 -14.62093,-2.527 -7.85891,-0.6302 -15.7845,0.053 -23.64621,-0.5415 -12.85372,-0.9716 -25.58706,-3.2758 -38.44765,-4.1516 -3.96922,-0.2703 -7.98695,0.081 -11.91336,0.722 -2.02945,0.3314 -3.85078,1.444 -5.77617,2.166 z"
         style="fill:#482500;fill-opacity:1;stroke:none;stroke-width:1.01083028" />
      <path
         inkscape:export-ydpi="90"
         inkscape:export-xdpi="90"
         inkscape:export-filename="D:\!Закачалось D\path3794.png"
         sodipodi:nodetypes="cccc"
         inkscape:connector-curvature="0"
         id="path3788"
         d="m 313.21829,1077.7515 -2.34656,7.5813 c 2.96689,-0.5063 3.87981,1.7262 3.97111,5.0541 8.81372,0.1286 2.95562,-10.0118 -1.62455,-12.6354 z"
         style="fill:#2c190b;fill-opacity:1;stroke:none;stroke-width:1.01083028" />
      <path
         inkscape:export-ydpi="90"
         inkscape:export-xdpi="90"
         inkscape:export-filename="D:\!Закачалось D\path3794.png"
         sodipodi:nodetypes="cccc"
         inkscape:connector-curvature="0"
         id="path3790"
         d="m 282.35187,1073.4194 c -2.69504,4.5044 -2.72986,8.9984 -3.06859,14.0795 2.15289,-3.0485 2.83903,-5.6037 2.70758,-9.2059 0,-0.7219 0.36101,-3.971 0.36101,-4.8736 z"
         style="fill:#2c190b;fill-opacity:1;stroke:none;stroke-width:1.01083028" />
      <path
         inkscape:export-ydpi="90"
         inkscape:export-xdpi="90"
         inkscape:export-filename="D:\!Закачалось D\path3794.png"
         sodipodi:nodetypes="csssccccc"
         inkscape:connector-curvature="0"
         id="path3792"
         d="m 281.44934,1159.8815 c -6.60906,-31.9973 -4.95786,-48.3623 -1.26354,-65.704 2.58524,-12.1354 6.44309,-17.0129 10.1083,-22.3826 6.07871,-8.9055 8.47304,-3.4666 10.10831,0.7221 4.39571,11.2596 7.51852,23.0283 14.80144,33.0324 -0.30234,5.2339 -1.05883,10.2407 -7.03971,12.6354 2.58696,4.8134 6.6845,9.6269 -3.2491,14.4404 -8.63079,0.1805 -10.99347,0.361 -15.16245,0.5416 z"
         style="fill:#0d0d0d;fill-opacity:1;stroke:none;stroke-width:1.01083028" />
      <path
         inkscape:export-ydpi="90"
         inkscape:export-xdpi="90"
         sodipodi:nodetypes="ccc"
         inkscape:connector-curvature="0"
         id="path3794"
         d="m 281.26883,1133.5277 c -1.08188,-21.4299 -0.97145,-31.8107 7.94224,-50.9024 -2.74663,16.9515 -5.36606,33.923 -7.94224,50.9024 z"
         style="fill:#414d5d;fill-opacity:1;stroke:none;stroke-width:1.01083028" />
    </g>
  </g>
</svg>
