<?xml version="1.0" encoding="UTF-8" standalone="no"?>
<!-- Created with Inkscape (http://www.inkscape.org/) -->

<svg
   xmlns:dc="http://purl.org/dc/elements/1.1/"
   xmlns:cc="http://creativecommons.org/ns#"
   xmlns:rdf="http://www.w3.org/1999/02/22-rdf-syntax-ns#"
   xmlns:svg="http://www.w3.org/2000/svg"
   xmlns="http://www.w3.org/2000/svg"
   xmlns:sodipodi="http://sodipodi.sourceforge.net/DTD/sodipodi-0.dtd"
   xmlns:inkscape="http://www.inkscape.org/namespaces/inkscape"
   width="200"
   height="200"
   viewBox="0 0 52.916665 52.916668"
   version="1.1"
   id="svg868"
   inkscape:version="0.92.3 (2405546, 2018-03-11)"
   sodipodi:docname="canguro.svg">
  <defs
     id="defs862">
    <inkscape:path-effect
       effect="mirror_symmetry"
       start_point="26.458333,244.08332"
       end_point="26.458333,296.99999"
       center_point="26.458333,270.54165"
       id="path-effect4680"
       is_visible="true"
       mode="vertical"
       discard_orig_path="false"
       fuse_paths="false"
       oposite_fuse="false" />
    <inkscape:path-effect
       effect="mirror_symmetry"
       start_point="26.458333,244.08332"
       end_point="26.458333,296.99999"
       center_point="26.458333,270.54165"
       id="path-effect859"
       is_visible="true"
       mode="vertical"
       discard_orig_path="false"
       fuse_paths="true"
       oposite_fuse="true" />
    <inkscape:path-effect
       effect="mirror_symmetry"
       start_point="26.458333,244.08332"
       end_point="26.458333,296.99999"
       center_point="26.458333,270.54165"
       id="path-effect828"
       is_visible="true"
       mode="vertical"
       discard_orig_path="false"
       fuse_paths="true"
       oposite_fuse="true" />
    <inkscape:path-effect
       effect="mirror_symmetry"
       start_point="26.458333,244.08332"
       end_point="26.458333,296.99999"
       center_point="26.458333,270.54165"
       id="path-effect4588"
       is_visible="true"
       mode="vertical"
       discard_orig_path="false"
       fuse_paths="true"
       oposite_fuse="true" />
    <inkscape:path-effect
       effect="mirror_symmetry"
       start_point="26.458333,244.08332"
       end_point="26.458333,296.99999"
       center_point="26.458333,270.54165"
       id="path-effect4687"
       is_visible="true"
       mode="vertical"
       discard_orig_path="false"
       fuse_paths="false"
       oposite_fuse="false" />
  </defs>
  <sodipodi:namedview
     id="base"
     pagecolor="#ffffff"
     bordercolor="#666666"
     borderopacity="1.0"
     inkscape:pageopacity="0.0"
     inkscape:pageshadow="2"
     inkscape:zoom="2.5"
     inkscape:cx="100"
     inkscape:cy="100"
     inkscape:document-units="mm"
     inkscape:current-layer="layer1"
     showgrid="false"
     units="px"
     inkscape:window-width="1299"
     inkscape:window-height="713"
     inkscape:window-x="67"
     inkscape:window-y="27"
     inkscape:window-maximized="1" />
  <metadata
     id="metadata865">
    <rdf:RDF>
      <cc:Work
         rdf:about="">
        <dc:format>image/svg+xml</dc:format>
        <dc:type
           rdf:resource="http://purl.org/dc/dcmitype/StillImage" />
        <dc:title></dc:title>
      </cc:Work>
    </rdf:RDF>
  </metadata>
  <g
     inkscape:label="Capa 1"
     inkscape:groupmode="layer"
     id="layer1"
     transform="translate(0,-244.08332)">
    <g
       transform="matrix(0.05353324,0,0,0.05353324,6.5939261,244.05302)"
       id="Layer_1">
      <path
         style="fill:#e3b674"
         inkscape:connector-curvature="0"
         d="m 433.036,800.754 c 29.123,8.279 38.957,1.365 64.795,-10.796 30.601,-14.407 70.744,-92.2 87.892,-107.543 32.709,-29.257 90.309,-36.454 153.578,-5.777 -43.467,-37.887 -104.67,-52.273 -169.467,-30.677 -35.267,11.757 -64.218,48.808 -91.806,75.597 -19.078,18.52 -45.551,-2.774 -61.192,-27 -15.722,-24.349 -36.841,16.621 -62.285,24.665 -33.633,10.632 -24,24.853 1.084,38.18 27.012,14.347 48.27,35.071 77.401,43.351"
         id="path2" />
      <path
         style="fill:#a58964"
         inkscape:connector-curvature="0"
         d="m 547.897,658.142 c 19.102,-4.302 22.353,-8.781 32.738,-8.591 5.752,0.105 23.407,-3.59 26.998,1.81 3.592,5.4 -3.322,18.975 -9.006,19.804 12.123,-1.582 37.434,-12.882 49.797,-13.929 25.477,-2.158 70.653,1.775 90.877,19.402 -43.467,-37.887 -104.668,-52.273 -169.463,-30.68 -7.927,2.643 -17.798,5.759 -21.941,12.184"
         id="path4" />
      <path
         style="fill:#e9c89b"
         inkscape:connector-curvature="0"
         d="m 433.036,800.754 c 29.123,8.279 41.4,7.197 64.793,-10.796 37.972,-29.212 56.826,-80.036 91.552,-109.997 -21.334,-8.662 -43.74,20.345 -55.549,36.197 -8.035,10.789 -32.876,40.443 -41.4,46.8 -20.396,15.208 -60.016,7.298 -73.801,-16.2 -13.976,-23.826 -30.453,-28.885 -58.461,-26.944 -34.336,2.383 -30.039,24.036 -4.519,37.596 27.006,14.348 48.258,35.064 77.385,43.344"
         id="path6" />
      <path
         style="fill-opacity:0;stroke:#1a1919;stroke-width:5.66900015;stroke-linecap:round;stroke-linejoin:round"
         inkscape:connector-curvature="0"
         d="m 433.036,800.754 c 29.123,8.279 47.4,7.197 63,-5.997 28.461,-24.076 72.539,-96.999 89.687,-112.342 32.709,-29.257 90.309,-36.454 153.578,-5.777 -43.467,-37.887 -104.67,-52.273 -169.467,-30.677 -35.267,11.757 -64.218,48.808 -91.806,75.597 -19.078,18.52 -45.551,-2.774 -61.192,-27 -15.722,-24.349 -36.841,16.621 -62.285,24.665 -33.633,10.632 -24,24.853 1.084,38.18 27.012,14.347 48.27,35.071 77.401,43.351 z"
         id="path8" />
      <path
         style="fill:#e3b674"
         inkscape:connector-curvature="0"
         d="m 356.231,807.367 c -8.648,11.261 -32.398,28.804 -48.598,27.594 -13.847,-1.034 -29.403,-6.61 -39.606,-19.205 -9.444,-11.659 -43.787,-50.991 -61.796,-76.195 -16.157,-22.612 -56.8,-49.335 -68.405,-64.807 -26.998,-36.003 -41.383,-106.196 -30.582,-143.996 9.45,-33.069 14.403,-35.987 39.593,-61.193 1.323,-11.081 1.499,-7.489 1.028,-14.998 -1.371,-21.881 -22.644,-22.69 -22.634,-33.609 0.018,-19.667 -0.982,-39.607 3.604,-63.904 9.003,-47.689 27.961,-116.427 63,-137.703 61.74,-37.491 97.193,57.6 109.8,100.81 9.248,31.694 23.442,53.392 37.805,81.007 11.359,21.843 36.002,36.721 52.201,53.997 32.397,19.8 41.766,41.165 48.598,52.2 23.394,37.797 25.078,93.705 0,129.604 -19.621,28.085 -30.391,102.332 -52.203,131.4 -5.399,7.195 -14.043,15.873 -31.805,38.998"
         id="path10" />
      <path
         style="fill:#e9c89b"
         inkscape:connector-curvature="0"
         d="m 366.432,812.763 c -8.648,11.261 -42.599,23.408 -58.799,22.198 -13.847,-1.034 -29.403,-6.61 -39.608,-19.205 -32.099,-39.621 -72.483,-77.766 -90.694,-126.5 -5.073,-13.58 -12.51,-26.18 -17.894,-39.705 2.905,1.121 -8.209,-34.959 -5.4,-34.194 0.931,-18.304 -1.092,-46.512 0,-64.793 0.553,2.135 10.417,33.22 10.8,37.797 0.065,-0.01 -0.013,-41.403 3.591,-45.004 1.217,-23.801 10.598,11.159 16.198,-10.799 2.386,-9.359 8.763,-10.125 7.427,-19.262 -2.336,-15.968 -0.766,-34.843 3.301,-50.408 6.151,9.398 5.175,21.97 12.317,29.458 -1.366,-1.434 2.31,-33.082 2.725,-37.357 1.158,-11.964 3.034,-25.175 13.313,-32.671 6.098,17.603 -1.355,38.092 13.123,54.215 12.381,-11.412 11.699,-44.775 25.194,-48.375 -3.6,15.303 13.969,82.49 27.051,90.215 3.065,-5.791 7.143,-7.19 12.287,-8.938 6.562,25.823 34.912,38.563 38.068,80.723 2.332,31.127 8.102,46.8 14.733,87.764 12.847,22.472 44.576,38.584 47.166,66.502 2.591,27.935 -20.188,49.183 -34.899,68.339"
         id="path12" />
      <path
         style="fill:#dcbe91"
         inkscape:connector-curvature="0"
         d="m 366.432,812.763 c -8.648,11.261 -42.599,23.408 -58.799,22.198 -13.847,-1.034 -29.403,-6.61 -39.608,-19.205 -13.654,-16.854 -32.909,-30.643 -44.558,-48.924 -9.826,-15.416 -18.61,-31.979 -28.333,-47.672 5.641,5.281 32.159,30.568 39.887,38.103 9.754,9.509 17.007,11.995 28.206,18.288 19.206,10.8 44.738,15.257 61.803,5.4 19.363,-11.18 26.738,-20.791 29.404,-46.188 0.885,-8.418 2.719,-47.486 6,-55.207 7.574,-17.82 39.813,53.174 40.897,64.868 2.591,27.935 -20.188,49.183 -34.899,68.339"
         id="path14" />
      <path
         style="fill:#c99f62"
         inkscape:connector-curvature="0"
         d="m 262.935,301.265 c -1.809,-7.211 2.698,-20.707 8.098,-26.107 5.4,-5.4 -12.115,-14.899 -22.196,-21.6 -10.358,-6.884 -14.834,-14.548 -28.592,-15.691 -14.675,-1.219 -28.322,4.075 -38.44,14.728 -4.235,4.458 -9.589,10.698 -10.596,16.804 7.126,12.952 8.017,17.459 8.017,30.055 -8.098,-12.596 -16.657,-17.989 -22.705,-14.46 -6.669,3.893 -14.676,24.146 -18.085,30.966 -2.144,-12.143 19.118,-54.64 25.051,-64.81 7.147,-12.252 16.031,-24.318 28.353,-31.803 25.165,-15.279 49.906,-7.344 68.316,13.852 9.309,10.719 16.399,23.368 22.501,36.123 2.63,5.498 9.975,20.236 15.374,39.441 -15.294,-29.112 -26.093,-20.998 -35.096,-7.498"
         id="path16" />
      <path
         style="fill-opacity:0;stroke:#1a1919;stroke-width:5.66900015;stroke-linecap:round;stroke-linejoin:round"
         inkscape:connector-curvature="0"
         d="m 364.038,812.763 c -10.737,12.492 -30.004,23.995 -56.405,22.198 -13.854,-0.942 -29.403,-6.61 -39.606,-19.205 -9.444,-11.659 -43.787,-50.991 -61.796,-76.195 -16.157,-22.612 -56.8,-49.335 -68.405,-64.807 -26.998,-36.003 -41.383,-106.196 -30.582,-143.996 9.45,-33.069 14.403,-35.987 39.593,-61.193 1.323,-11.081 1.499,-7.489 1.028,-14.998 -1.371,-21.881 -22.644,-22.69 -22.634,-33.609 0.018,-19.667 2.275,-33.075 5.399,-57.6 6.305,-49.5 26.166,-122.731 61.205,-144.007 61.74,-37.491 100.786,59.4 113.393,102.607 9.247,31.697 19.849,51.595 34.212,79.21 11.359,21.843 37.791,39.593 52.201,53.997 32.397,19.8 41.76,36.341 48.59,47.376 23.395,37.797 25.086,98.529 0.008,134.428 -19.621,28.085 -30.391,102.332 -52.203,131.4 -5.399,7.195 -1.801,18.572 -23.998,44.394 z"
         id="path18" />
      <path
         style="fill:#e3b674"
         inkscape:connector-curvature="0"
         d="m 292.632,216.651 c 1.343,16.829 -7.359,32.326 -15.242,46.505 -5.555,9.991 -13.198,27.924 -20.76,35.409 -4.766,4.714 -15.254,13.549 -22.165,16.819 -9.587,4.528 -15.56,0.302 -24.635,-4.226 -20.125,-10.044 -27.835,-27.573 -41.388,-42.835 -17.105,-19.262 -24.606,-35.177 -25.217,-56.165 -0.361,-12.361 4.241,-38.528 7.208,-50.393 5.996,-23.984 12.929,-28.427 29.698,-39.618 18.899,-12.61 50.406,-15.31 68.4,-3.603 20.915,13.598 28.96,26.662 34.206,45.014 5.4,18.9 9.038,42.377 9.895,53.093"
         id="path20" />
      <path
         style="fill-opacity:0;stroke:#1a1919;stroke-width:5.66900015;stroke-linecap:round;stroke-linejoin:round"
         inkscape:connector-curvature="0"
         d="m 176.54,279.64 c -11.399,-14.699 -29.71,-35.096 -31.507,-54.9 -1.259,-13.865 2.688,-44.993 7.197,-63.889 4.823,-20.215 11.139,-28.442 21.61,-37.814 7.946,-7.109 23.682,-9.549 39.593,-9.893 18.32,-0.394 36.878,2.348 44.102,9.893 13.653,14.259 14.403,17.121 20.695,32.414 7.478,18.176 16.21,49.549 16.21,60.3 0,18.896 -10.812,42.293 -25.202,63.889"
         id="path22" />
      <path
         style="fill:#a58964"
         inkscape:connector-curvature="0"
         d="m 161.273,55.607 c 6.562,15.039 9.697,31.324 14.71,46.888 3.489,10.835 21.178,34.597 6.709,38.169 -5.26,1.297 -14.816,-2.018 -20.555,-7.706 C 150.034,120.963 114.356,112.015 102.728,99.654 82.775,78.444 80.032,46.361 89.226,18.661 c 25.002,-3.249 63.06,16.344 72.047,36.946"
         id="path24" />
      <path
         style="fill:#e3b674"
         inkscape:connector-curvature="0"
         d="m 163.028,64.557 c 6.562,15.04 7.942,22.374 12.955,37.938 2.15,6.676 15.323,21.111 17.647,31.366 1.448,6.388 -4.78,10.037 -9.895,12.597 -5.4,2.7 -19.463,-10.512 -25.202,-16.2 -28.807,-16.2 -38.777,-20.039 -50.405,-32.401 C 88.174,76.648 89.229,43.84 99.136,29.451 116.24,19.54 154.04,43.959 163.028,64.557"
         id="path26" />
      <path
         style="fill-opacity:0;stroke:#1a1919;stroke-width:5.66900015;stroke-linecap:round;stroke-linejoin:round"
         inkscape:connector-curvature="0"
         d="M 167.231,140.748 C 151.63,125.164 122.22,112.31 108.128,100.557 86.531,82.55 80.032,46.361 89.226,18.661 c 25.002,-3.249 63.062,16.344 72.047,36.946 8.865,20.324 18.894,56.661 26.958,65.356"
         id="path28" />
      <path
         style="fill:#a58964"
         inkscape:connector-curvature="0"
         d="m 320.538,80.771 c -11.411,12.868 -17.726,20.128 -29.701,32.383 -8.798,9.004 -23.2,25.383 -40.5,18.911 -14.126,-5.288 -6.184,-22.792 -3.599,-30.6 5.149,-15.547 11.237,-33.104 17.363,-48.368 10.85,-27.021 34.964,-49.17 63.96,-52.482 13.463,21.319 7.385,63.337 -7.523,80.156"
         id="path30" />
      <path
         style="fill:#e3b674"
         inkscape:connector-curvature="0"
         d="m 309.735,92.457 c -16.683,18.816 -15.545,15.35 -23.407,23.397 -8.798,9.004 -23.196,28.073 -40.496,21.597 -14.126,-5.284 -0.791,-22.778 1.794,-30.586 5.149,-15.547 7.374,-29.746 13.5,-45.008 10.852,-27.024 33.314,-46.814 57.613,-44.113 18.9,9.006 5.904,57.895 -9.004,74.713"
         id="path32" />
      <path
         style="fill-opacity:0;stroke:#1a1919;stroke-width:5.66900015;stroke-linecap:round;stroke-linejoin:round"
         inkscape:connector-curvature="0"
         d="m 239.234,120.337 c 10.743,-17.178 14.975,-49.779 22.799,-69.265 10.851,-27.025 36.7,-43.503 65.696,-46.815 13.463,21.319 3.031,59.313 -9.004,78.293 -17.106,26.987 -40.202,40.195 -53.995,57.59"
         id="path34" />
      <path
         style="fill:#1a1919"
         inkscape:connector-curvature="0"
         d="m 181.634,165.344 c 7.807,0 7.513,13.18 0.306,12.582 -7.971,-0.661 -5.141,-12.582 -0.306,-12.582"
         id="path36" />
      <path
         style="fill:#1a1919"
         inkscape:connector-curvature="0"
         d="m 253.638,163.551 c 8.392,0 8.697,12.297 0.599,13.19 -5.654,0.623 -7.848,-13.19 -0.599,-13.19"
         id="path38" />
      <path
         style="fill:#e3b674"
         inkscape:connector-curvature="0"
         d="m 161.233,653.158 c 17.71,45.555 42.333,74.576 48.597,84.596 9.003,14.404 24.906,41.343 30.602,53.997 8.483,18.844 17.398,40.673 16.198,61.207 -3.604,19.8 -22.669,12.389 -36.002,16.196 -5.62,1.607 -74.69,10.801 -100.796,17.104 -19.317,4.662 -53.106,12.593 -82.805,32.4 -2.397,-6.912 0.904,-15.297 7.209,-24.301 -11.703,7.194 -16.2,7.194 -26.998,14.404 -0.014,-3.603 -0.014,-14.404 8.99,-24.296 -3.041,-3.048 -7.195,3.589 -23.394,9.892 7.208,-49.5 82.271,-48.322 99.003,-52.199 21.886,-5.076 69.736,-13.689 82.789,-14.407 10.241,-18.759 -16.817,-87.645 -19.789,-93.586 -16.212,-32.414 -41.402,-73.8 -46.802,-97.207"
         id="path40" />
      <path
         style="fill:#896f46"
         inkscape:connector-curvature="0"
         d="m 37.027,918.658 c -2.397,-6.912 0.904,-15.297 7.209,-24.301 -11.703,7.194 -16.2,7.194 -26.998,14.404 -0.014,-3.603 -0.014,-14.404 8.99,-24.296 -3.041,-3.048 -7.195,3.589 -23.394,9.892 2.275,-15.63 12.365,-27.523 25.863,-35.071 6.68,-3.733 13.929,-6.392 21.271,-8.483 2.563,-0.731 8.173,-3.315 10.688,-2.198 5.627,2.504 5.179,5.252 0.923,7.369 10.547,4.191 15.945,8.684 10.816,14.991 7.829,4.493 15.108,4.648 16.833,8.099 5.4,10.797 -4.427,16.356 -12.69,19.793 -13.73,5.71 -27.076,11.508 -39.511,19.801"
         id="path42" />
      <path
         style="fill-opacity:0;stroke:#1a1919;stroke-width:5.66900015;stroke-linecap:round;stroke-linejoin:round"
         inkscape:connector-curvature="0"
         d="m 161.233,653.158 c 17.71,45.555 42.333,74.576 48.597,84.596 9.003,14.404 24.906,41.343 30.602,53.997 8.483,18.844 17.398,40.673 16.198,61.207 -3.604,19.8 -22.669,12.389 -36.002,16.196 -5.62,1.607 -74.69,10.801 -100.796,17.104 -19.317,4.662 -53.106,12.593 -82.805,32.4 -2.397,-6.912 0.904,-15.297 7.209,-24.301 -11.703,7.194 -16.2,7.194 -26.998,14.404 -0.014,-3.603 -0.014,-14.404 8.99,-24.296 -3.041,-3.048 -7.195,3.589 -23.394,9.892 7.208,-49.5 82.271,-48.322 99.003,-52.199 21.886,-5.076 69.736,-13.689 82.789,-14.407 10.241,-18.759 -15.022,-82.245 -17.995,-88.187 C 150.419,707.15 123.435,658.568 118.035,635.162 M 146.83,456.961 c -5.798,21.357 -16.2,100.797 5.398,127.797"
         id="path44" />
      <path
         style="fill:#e3b674"
         inkscape:connector-curvature="0"
         d="m 146.83,326.451 c -9.895,28.807 -24.286,92.7 -23.395,116.107 1.137,29.893 6.382,32.53 10.8,42.307 12.607,27.9 30.914,51.42 49.5,73.8 -1.809,15.293 -0.012,28.793 8.991,42.293 1.809,-10.8 3.873,-14.306 5.4,-17.107 -0.334,8.877 8.715,33.328 18.911,32.414 -4.507,-8.1 -2.872,-20.25 -0.702,-25.186 7.867,7.622 7.086,21.817 22.474,20.792 -6.427,-7.784 -10.587,-21.305 -10.081,-31.61 3.468,8.002 14.275,17.096 21.598,5.401 -11.988,0.502 -11.322,-18.953 -12.595,-24.297 -4.496,-18.9 -17.72,-24.954 -25.201,-29.715 -9.897,-6.289 -27.255,-31.387 -36.895,-50.392 -5.671,-11.176 -7.207,-29.802 -7.207,-36.904 0,-16.196 7.993,-60.669 9.907,-63"
         id="path46" />
      <path
         style="fill:#e3b674"
         inkscape:connector-curvature="0"
         d="m 168.428,444.354 c 0,-25.864 8.182,-51.11 10.761,-76.658 0.944,-9.337 4.998,-18.26 6.386,-27.826 1.635,-11.261 -14.064,-25.977 -23.438,-32.316 -28.417,-19.22 -39.396,116.744 -38.702,135.004 1.137,29.893 6.382,32.53 10.8,42.307 12.607,27.9 30.914,51.42 49.5,73.8 -1.809,15.293 -0.012,28.793 8.991,42.293 1.809,-10.8 3.873,-14.306 5.4,-17.107 -0.334,8.877 8.715,33.328 18.911,32.414 -4.507,-8.1 -2.872,-20.25 -0.702,-25.186 7.867,7.622 7.086,21.817 22.474,20.792 -6.427,-7.784 -10.587,-21.305 -10.081,-31.61 3.468,8.002 14.275,17.096 21.598,5.401 -11.988,0.502 -11.322,-18.953 -12.595,-24.297 -4.496,-18.9 -17.72,-24.954 -25.201,-29.715 -9.897,-6.289 -27.255,-31.387 -36.895,-50.392 -5.671,-11.176 -7.207,-29.802 -7.207,-36.904"
         id="path48" />
      <path
         style="fill:#e3b674"
         inkscape:connector-curvature="0"
         d="m 389.827,455.151 c -57.602,-8.99 -52.188,97.206 -48.596,131.407"
         id="path50" />
      <path
         style="fill-opacity:0;stroke:#1a1919;stroke-width:5.66900015;stroke-linecap:round;stroke-linejoin:round"
         inkscape:connector-curvature="0"
         d="m 389.827,455.151 c -57.602,-8.99 -52.188,97.206 -48.596,131.407"
         id="path52" />
      <path
         style="fill:#896f46"
         inkscape:connector-curvature="0"
         d="m 250.324,585.662 c -15.987,0.671 -8.704,-20.247 -15.293,-27.904 -1.051,11.539 -2.234,18.239 -15.306,23.407 -2.319,0.917 -7.96,5.434 -9.872,5.46 -4.035,0.049 -12.395,-6.289 -14.954,-9.356 -3.461,-4.148 -5.27,-8.261 -7.573,-16.811 -14.389,9.003 1.809,33.303 5.4,40.493 1.809,-10.793 3.873,-14.299 5.4,-17.1 -0.334,8.877 8.715,33.328 18.911,32.414 -4.507,-8.1 -2.872,-20.25 -0.702,-25.186 7.867,7.622 7.086,21.817 22.474,20.792 -6.427,-7.784 -10.587,-21.305 -10.081,-31.61 3.468,8.002 14.275,17.096 21.596,5.401"
         id="path54" />
      <path
         style="fill-opacity:0;stroke:#1a1919;stroke-width:5.66900015;stroke-linecap:round;stroke-linejoin:round"
         inkscape:connector-curvature="0"
         d="m 137.826,324.658 c -7.196,34.207 -15.282,94.493 -14.391,117.9 1.137,29.893 7.274,36.119 11.691,45.896 12.607,27.9 30.023,47.831 48.609,70.211 -1.809,15.293 -0.012,28.793 8.991,42.293 1.809,-10.8 3.873,-14.306 5.4,-17.107 -0.334,8.877 8.715,33.328 18.911,32.414 -4.507,-8.1 -2.872,-20.25 -0.702,-25.186 7.867,7.622 7.086,21.817 22.474,20.792 -6.427,-7.784 -10.587,-21.305 -10.081,-31.61 3.468,8.002 14.275,17.096 21.598,5.401 -11.988,0.502 -11.322,-18.953 -12.595,-24.297 -4.496,-18.9 -17.72,-24.954 -25.201,-29.715 -9.897,-6.289 -27.255,-31.387 -36.895,-50.392 -5.671,-11.176 -7.207,-29.802 -7.207,-36.904 0,-16.196 7.993,-65.165 9.907,-67.496"
         id="path56" />
      <path
         style="fill:#e3b674"
         inkscape:connector-curvature="0"
         d="m 284.343,435.973 c -3.591,-25.611 -15.197,-49.482 -21.297,-74.422 -2.233,-9.116 -7.485,-17.392 -10.189,-26.67 -3.183,-10.926 10.322,-27.675 18.726,-35.258 12.931,-11.661 29.023,14.207 39.949,47.535 10.595,32.33 16.211,71.838 17.121,80.789 3.023,29.763 -1.807,33.103 -4.824,43.397 -8.612,29.38 -23.475,55.216 -38.773,79.953 3.912,14.898 4.008,28.517 -3.034,43.132 -3.292,-10.441 -5.821,-13.623 -7.724,-16.182 1.564,8.739 -4.001,34.214 -14.227,34.72 3.339,-8.649 0.032,-20.454 -2.801,-25.038 -6.731,8.634 -3.987,22.584 -19.372,23.709 5.286,-8.599 7.529,-22.57 5.597,-32.703 -2.324,8.403 -11.763,18.914 -20.638,8.347 11.941,-1.163 8.58,-20.341 9.098,-25.811 1.83,-19.344 14.086,-27.172 20.832,-32.92 8.928,-7.606 22.634,-34.876 29.544,-55.032 4.064,-11.857 2.996,-30.511 2.012,-37.546"
         id="path58" />
      <path
         style="fill:#896f46"
         inkscape:connector-curvature="0"
         d="m 222.858,587.282 c 15.926,-1.554 5.809,-21.255 11.27,-29.757 2.644,11.279 4.746,17.748 18.408,21.053 2.424,0.59 9.13,1.11 11.026,0.864 4.003,-0.507 10.908,-4.778 13.019,-8.171 2.852,-4.584 4.072,-8.912 5.166,-17.697 15.5,6.919 2.83,33.236 0.275,40.852 -3.292,-10.438 -5.821,-13.62 -7.724,-16.179 1.564,8.739 -4.001,34.214 -14.227,34.72 3.339,-8.649 0.032,-20.454 -2.801,-25.038 -6.731,8.634 -3.987,22.584 -19.372,23.709 5.286,-8.599 7.529,-22.57 5.597,-32.703 -2.324,8.403 -11.763,18.914 -20.637,8.347"
         id="path60" />
      <path
         style="fill-opacity:0;stroke:#1a1919;stroke-width:5.66900015;stroke-linecap:round;stroke-linejoin:round"
         inkscape:connector-curvature="0"
         d="m 303.432,314.761 c 11.703,37.797 25.444,90.099 27.901,113.393 2.681,25.411 -1.116,37.526 -4.506,47.703 -8.102,24.315 -26.473,50.703 -41.771,75.44 3.912,14.898 4.008,28.517 -3.034,43.132 -3.292,-10.441 -5.821,-13.623 -7.724,-16.182 1.564,8.739 -4.001,34.214 -14.227,34.72 3.339,-8.649 0.032,-20.454 -2.801,-25.038 -6.731,8.634 -3.987,22.584 -19.372,23.709 5.286,-8.599 7.529,-22.57 5.597,-32.703 -2.324,8.403 -11.763,18.914 -20.638,8.347 11.941,-1.163 8.58,-20.341 9.098,-25.811 1.83,-19.344 14.086,-27.172 20.832,-32.92 8.928,-7.606 22.634,-34.876 29.544,-55.032 4.064,-11.857 2.996,-30.511 2.012,-37.546 -2.248,-16.042 -16.491,-58.869 -18.71,-60.908"
         id="path62" />
      <path
         style="fill:#e3b674"
         inkscape:connector-curvature="0"
         d="m 416.836,811.554 c -0.966,-15.486 4.541,-81.914 7.196,-97.193 8.523,-49.047 28.795,-84.596 34.193,-126 l -107.992,59.397 c 3.814,25.168 17.092,70.193 21.598,116.993 2.353,24.448 2.711,38.714 -1.795,64.81 -1.653,9.57 -7.963,24.005 -12.608,33.304 -9.472,18.959 -53.543,32.737 -80.511,46.477 -16.489,4.746 -52.487,9.9 -60.784,17.416 -9.675,8.761 -26.107,26.103 -23.407,47.703 5.615,-1.838 17.436,-10.315 21.611,-12.61 -0.918,4.36 -7.207,14.407 -2.526,18.858 4.057,-2.563 12.273,-6.666 19.343,-11.088 -1.329,5.663 -0.97,10.321 2.083,12.937 43.196,-21.597 111.898,-47.767 133.195,-59.393 19.803,-10.814 44.682,-20.657 55.805,-27.015 12.594,-7.192 8.39,-27.597 2.992,-43.793 -5.721,-17.156 -7.727,-30.129 -8.393,-40.803"
         id="path64" />
      <path
         style="fill:#896f46"
         inkscape:connector-curvature="0"
         d="m 263.413,936.148 c 0.967,-9.004 -4.083,-13.89 -14.403,-10.768 0.232,-14.605 -27.403,-3.579 -32.879,1.378 -9.674,8.761 -18.896,24.296 -23.405,47.703 5.615,-1.838 17.436,-10.315 21.611,-12.61 -0.918,4.36 -7.207,14.407 -2.526,18.858 4.057,-2.563 12.273,-6.666 19.343,-11.088 -1.329,5.663 -0.97,10.321 2.083,12.937 1.28,1.096 49.155,-22.631 52.2,-24.297 4.495,-19.803 -10.798,-23.407 -22.024,-22.113"
         id="path66" />
      <path
         style="fill-opacity:0;stroke:#1a1919;stroke-width:5.66900015;stroke-linecap:round;stroke-linejoin:round"
         inkscape:connector-curvature="0"
         d="m 350.233,647.758 c 3.814,25.168 17.092,70.193 21.598,116.993 2.353,24.448 2.711,38.714 -1.795,64.81 -1.565,9.05 -5.401,24.296 -15.309,36.894 -13.103,16.66 -55.382,32.719 -81.898,42.306 -16.488,4.743 -44.101,8.99 -58.492,19.803 -10.435,7.84 -21.611,28.793 -20.707,45.897 5.614,-1.838 16.532,-10.315 20.707,-12.61 -0.918,4.36 -7.207,14.407 -2.526,18.858 4.057,-2.563 12.273,-6.666 19.343,-11.088 -1.329,5.663 -2.426,12.037 -0.617,16.544 43.196,-27.015 114.598,-51.374 135.895,-63 19.803,-10.814 44.682,-20.657 55.805,-27.015 12.594,-7.192 8.39,-28.793 2.992,-44.992 -5.721,-17.156 -7.727,-28.93 -8.393,-39.604 -0.966,-15.486 2.934,-82.283 7.196,-97.193 10.799,-37.797 28.795,-84.596 34.193,-126 M 231.428,970.857 c 0.904,-13.5 24.061,-34.234 37.797,-32.399 m -54.893,23.399 c 8.105,-21.603 27.565,-36.414 36.899,-35.099 m -208.8,-29.7 c 6.3,-9.896 21.57,-22.218 29.695,-26.093 m -48.597,17.089 c 6.3,-9.896 21.599,-26.996 36.906,-29.697"
         id="path68" />
      <path
         style="fill:#937350"
         inkscape:connector-curvature="0"
         d="m 271.033,642.357 c 5.4,19.793 9.003,23.394 25.204,40.205 16.205,16.819 15.349,36.641 -7.806,52.798 -34.413,24.015 -42.023,-6.001 -42.599,-45.296 -0.224,-15.222 -2.321,-39.902 0,-47.707 4.362,-14.678 19.98,-19.131 25.201,0"
         id="path70" />
      <path
         style="fill-opacity:0;stroke:#1a1919;stroke-width:5.66900015;stroke-linecap:round;stroke-linejoin:round"
         inkscape:connector-curvature="0"
         d="m 271.033,642.357 c 5.4,19.793 9.003,23.394 25.204,40.205 16.205,16.819 15.349,36.641 -7.806,52.798 -34.413,24.015 -42.023,-6.001 -42.599,-45.296 -0.224,-15.222 -2.321,-39.902 0,-47.707 4.362,-14.678 19.98,-19.131 25.201,0 z"
         id="path72" />
      <path
         style="fill:#e3b674"
         inkscape:connector-curvature="0"
         d="m 226.932,784.558 c 2.562,2.713 9.896,7.207 17.103,5.4 11.475,-2.88 20.401,-2.398 16.798,-22.796 16.481,-12.42 33.607,-23.406 42.599,-49.211 8.065,-23.141 -0.732,-41.035 -21.599,-48.594 -24.223,-8.774 -38.207,-2.291 -45.991,24.041 -3.351,11.338 -2.649,25.735 -2.605,37.761 0.103,28.487 -16.793,42.286 -6.305,53.399"
         id="path74" />
      <path
         style="fill:#e1e2e0"
         inkscape:connector-curvature="0"
         d="m 226.933,784.558 c 2.565,2.713 9.897,7.207 17.104,5.4 8.261,-2.074 18.394,-3.677 18.112,-14.667 -0.265,-10.379 -7.748,-2.94 -15.121,-0.338 -4.131,1.459 -8.309,-4.029 -12.731,-4.662 -4.117,-0.586 -8.016,-3.143 -10.526,1.054 -2.141,3.586 0.675,10.577 3.162,13.213"
         id="path76" />
      <path
         style="fill-opacity:0;stroke:#1a1919;stroke-width:5.66900015;stroke-linecap:round;stroke-linejoin:round"
         inkscape:connector-curvature="0"
         d="m 226.932,784.558 c 2.562,2.713 9.896,7.207 17.103,5.4 11.475,-2.88 20.401,-2.398 16.798,-22.796 16.481,-12.42 37.811,-23.406 46.8,-49.211 8.067,-23.141 -4.933,-41.035 -25.8,-48.594 -24.223,-8.774 -38.207,-2.291 -45.991,24.041 -3.351,11.338 -2.649,25.735 -2.605,37.761 0.103,28.487 -16.793,42.286 -6.305,53.399 z"
         id="path78" />
      <path
         style="fill:#e3b674"
         inkscape:connector-curvature="0"
         d="m 260.235,674.754 c 0,-13.289 -0.742,-22.26 -16.2,-24.602 -15.715,-2.381 -40.191,11.703 -40.803,24.602 2.993,7.207 13.747,7.211 26.399,7.211 8.406,0 10.203,0 13.195,2.992"
         id="path80" />
      <path
         style="fill:#e3b674"
         inkscape:connector-curvature="0"
         d="m 235.031,776.458 c -0.07,3.747 -0.404,9.71 1.198,12.302"
         id="path82" />
      <path
         style="fill-opacity:0;stroke:#1a1919;stroke-width:5.66900015;stroke-linecap:round;stroke-linejoin:round"
         inkscape:connector-curvature="0"
         d="m 235.031,776.458 c -0.07,3.747 -0.404,9.71 1.198,12.302"
         id="path84" />
      <path
         style="fill:#836b43"
         inkscape:connector-curvature="0"
         d="m 238.037,766.561 c 4.504,1.53 10.215,4.412 10.494,4.788 4.43,5.946 -4.626,10.038 -13.498,8.1 -3.285,-0.721 -12.751,-4.658 -9.003,-12.596 1.26,-2.665 6.22,-2.254 12.007,-0.292"
         id="path86" />
      <path
         style="fill-opacity:0;stroke:#1a1919;stroke-width:5.66900015;stroke-linecap:round;stroke-linejoin:round"
         inkscape:connector-curvature="0"
         d="m 238.037,766.561 c 4.504,1.53 10.215,4.412 10.494,4.788 4.43,5.946 -4.626,10.038 -13.498,8.1 -3.285,-0.721 -12.751,-4.658 -9.003,-12.596 1.26,-2.665 6.22,-2.254 12.007,-0.292 z"
         id="path88" />
      <path
         style="fill:#1a1919"
         inkscape:connector-curvature="0"
         d="m 244.035,713.76 c 5.451,1.814 4.034,11.595 -0.597,10.203 -6.012,-1.807 -3.006,-11.399 0.597,-10.203"
         id="path90" />
      <path
         style="fill:#1a1919"
         inkscape:connector-curvature="0"
         d="m 276.433,723.963 c 5.134,2.573 2.827,10.395 -1.805,9.004 -6.012,-1.808 -2.995,-11.409 1.805,-9.004"
         id="path92" />
      <path
         style="fill:#8a6939"
         inkscape:connector-curvature="0"
         d="m 250.326,671.165 c 1.197,-7.196 -3.386,-11.074 -8.098,-12.009 -8.836,-1.752 -23.015,5.206 -25.191,14.709 3.591,6.289 16.2,9.893 26.094,11.689 4.187,0.499 6.515,-10.3 7.195,-14.389"
         id="path94" />
      <path
         style="fill:#e3b674"
         inkscape:connector-curvature="0"
         d="m 283.628,677.162 c 4.496,-12.504 6.627,-20.693 21.966,-17.662 15.592,3.076 37.032,25.721 33.24,38.064 -5.253,5.769 -14.492,5.477 -26.4,1.199 -8.035,-2.894 -10.913,-3.044 -18.006,-5.4"
         id="path96" />
      <path
         style="fill:#8a6939"
         inkscape:connector-curvature="0"
         d="m 292.632,678.955 c 1.307,-7.172 7.847,-9.41 12.596,-8.697 8.909,1.349 20.968,11.925 19.802,21.599 -10.639,4.828 -16.199,4.497 -26.093,0.908 -4.11,-0.949 -7.049,-9.728 -6.305,-13.81"
         id="path98" />
      <path
         style="fill:#8a6939"
         inkscape:connector-curvature="0"
         d="M 169.332,122.158 C 164.837,102.354 152.038,77.312 141.43,64.557 132.438,53.747 122.837,39.343 110.84,44.744 c -7.194,15.602 3.465,32.898 5.986,36.611 11.409,16.798 43.502,27.303 52.506,40.803"
         id="path100" />
      <path
         style="fill:#8a6939"
         inkscape:connector-curvature="0"
         d="m 259.33,120.365 c 5.4,-27 18.855,-63.141 26.715,-74.384 7.64,-10.927 19.78,-19.224 28.784,-16.228 9.603,11.411 -12.639,39.223 -16.798,46.301 -5.397,9.186 -27.903,22.711 -38.701,44.311"
         id="path102" />
      <path
         style="fill:#c99f62"
         inkscape:connector-curvature="0"
         d="m 261.989,244.959 c 1.342,14.238 -7.11,33.89 -10.16,40.387 -4.813,10.238 -10.837,16.643 -22.795,17.993 -2.498,0.281 -12.148,3.906 -23.778,-8.3 -4.233,-4.437 -23.462,-32.994 -22.815,-45.707 3.992,-17.634 -2.738,-30.677 -7.393,-55.09 6.641,2.046 34.439,36.042 35.437,48.579 26.563,-8.142 21.247,-21.027 31.876,-14.231 6.64,-18.992 15.946,-35.269 21.924,-35.269 -4.651,33.912 -2.872,45.492 -2.296,51.638"
         id="path104" />
      <path
         style="fill:#e3b674"
         inkscape:connector-curvature="0"
         d="m 175.665,195.494 c 11.097,13.764 20.863,51.419 19.538,66.332 8.539,9.57 49.266,8.586 58.451,-1.371 -3.975,-24.412 1.529,-55.276 7.179,-69.31"
         id="path106" />
      <path
         style="fill-opacity:0;stroke:#1a1919;stroke-width:5.66900015;stroke-linecap:round;stroke-linejoin:round"
         inkscape:connector-curvature="0"
         d="m 175.665,195.494 c 11.097,13.764 20.863,51.419 19.538,66.332 8.539,9.57 49.266,8.586 58.451,-1.371 -3.975,-24.412 1.529,-55.276 7.179,-69.31"
         id="path108" />
      <path
         style="fill:#fffffe"
         inkscape:connector-curvature="0"
         d="m 242.701,288.946 c 23.22,-20.468 -24.914,-40.62 -36.877,-14.938 -7.749,16.636 24.549,25.801 36.877,14.938"
         id="path110" />
      <path
         style="fill-opacity:0;stroke:#1a1919;stroke-width:5.66900015;stroke-linecap:round;stroke-linejoin:round"
         inkscape:connector-curvature="0"
         d="m 242.701,288.946 c 23.22,-20.468 -24.914,-40.62 -36.877,-14.938 -7.749,16.636 24.549,25.801 36.877,14.938 z"
         id="path112" />
      <path
         style="fill:#fffffe"
         inkscape:connector-curvature="0"
         d="m 253.04,254.145 c 7.652,20.851 -5.365,40.904 -29.272,34.801 -23.915,1.005 -43.6,-31.711 -21.926,-40.693 13.321,-5.523 45.107,-10.702 51.198,5.892"
         id="path114" />
      <path
         style="fill-opacity:0;stroke:#1a1919;stroke-width:5.66900015;stroke-linecap:round;stroke-linejoin:round"
         inkscape:connector-curvature="0"
         d="m 227.837,282.34 c 8.068,2.584 15.208,5.657 24.135,-3.709 7.032,-7.375 6.294,-19.146 -0.048,-26.852 -10.563,-12.839 -39.651,-11.89 -51.841,-1.561 -18.895,16.017 2.826,44.909 27.754,32.122 z m -2.069,-25.942 c 0,9.496 1.323,14.917 1.323,24.413"
         id="path116" />
      <path
         style="fill:#856142"
         inkscape:connector-curvature="0"
         d="m 224.831,239.741 c 10.2,0.598 23.801,2.634 25.203,11.996 1.797,11.999 -17.994,11.411 -23.992,16.812 -5.412,-4.202 -26.851,-5.379 -26.413,-17.41 0.306,-8.413 13.876,-12.066 25.202,-11.398"
         id="path118" />
      <path
         style="fill-opacity:0;stroke:#1a1919;stroke-width:5.66900015;stroke-linecap:round;stroke-linejoin:round"
         inkscape:connector-curvature="0"
         d="m 224.831,239.741 c 10.2,0.598 23.801,2.634 25.203,11.996 1.797,11.999 -17.994,11.411 -23.992,16.812 -5.412,-4.202 -26.851,-5.379 -26.413,-17.41 0.306,-8.413 13.876,-12.066 25.202,-11.398 z"
         id="path120" />
      <path
         style="fill:#75563b"
         inkscape:connector-curvature="0"
         d="m 235.031,255.941 c -0.88,-5.238 12.608,-10.803 14.404,-5.4 2.994,9.004 -13.192,12.607 -14.404,5.4"
         id="path122" />
      <path
         style="fill-opacity:0;stroke:#1a1919;stroke-width:5.66900015;stroke-linecap:round;stroke-linejoin:round"
         inkscape:connector-curvature="0"
         d="m 235.031,255.941 c -0.88,-5.238 12.608,-10.803 14.404,-5.4 2.994,9.004 -13.192,12.607 -14.404,5.4 z"
         id="path124" />
      <path
         style="fill:#75563b"
         inkscape:connector-curvature="0"
         d="m 201.438,251.737 c 2.376,-4.746 17.582,-0.721 16.198,4.802 -2.406,9.605 -19.803,2.405 -16.198,-4.802"
         id="path126" />
      <path
         style="fill-opacity:0;stroke:#1a1919;stroke-width:5.66900015;stroke-linecap:round;stroke-linejoin:round"
         inkscape:connector-curvature="0"
         d="m 201.438,251.737 c 2.376,-4.746 17.582,-0.721 16.198,4.802 -2.406,9.605 -19.803,2.405 -16.198,-4.802 z m 55.192,423.017 c 8.1,-7.196 2.863,-22.26 -12.595,-24.602 -15.715,-2.381 -40.191,11.703 -40.803,24.602 9.298,7.211 14.652,9.911 27.305,9.911 8.405,0 7.184,0.903 11.691,0 m 44.1,-3.607 c -3.591,-14.112 3.927,-24.589 19.266,-21.558 15.592,3.076 37.032,25.721 33.24,38.064 -9.308,3.297 -21,2.394 -26.4,1.199 -8.336,-1.849 -6.405,-2.753 -13.497,-5.109"
         id="path128" />
    </g>
  </g>
</svg>
