<?xml version="1.0" encoding="UTF-8" standalone="no"?>
<!-- Created with Inkscape (http://www.inkscape.org/) -->

<svg
   xmlns:dc="http://purl.org/dc/elements/1.1/"
   xmlns:cc="http://creativecommons.org/ns#"
   xmlns:rdf="http://www.w3.org/1999/02/22-rdf-syntax-ns#"
   xmlns:svg="http://www.w3.org/2000/svg"
   xmlns="http://www.w3.org/2000/svg"
   xmlns:sodipodi="http://sodipodi.sourceforge.net/DTD/sodipodi-0.dtd"
   xmlns:inkscape="http://www.inkscape.org/namespaces/inkscape"
   width="200"
   height="200"
   viewBox="0 0 52.916665 52.916668"
   version="1.1"
   id="svg868"
   inkscape:version="0.92.3 (2405546, 2018-03-11)"
   sodipodi:docname="cebra.svg">
  <defs
     id="defs862">
    <inkscape:path-effect
       effect="mirror_symmetry"
       start_point="26.458333,244.08332"
       end_point="26.458333,296.99999"
       center_point="26.458333,270.54165"
       id="path-effect4680"
       is_visible="true"
       mode="vertical"
       discard_orig_path="false"
       fuse_paths="false"
       oposite_fuse="false" />
    <inkscape:path-effect
       effect="mirror_symmetry"
       start_point="26.458333,244.08332"
       end_point="26.458333,296.99999"
       center_point="26.458333,270.54165"
       id="path-effect859"
       is_visible="true"
       mode="vertical"
       discard_orig_path="false"
       fuse_paths="true"
       oposite_fuse="true" />
    <inkscape:path-effect
       effect="mirror_symmetry"
       start_point="26.458333,244.08332"
       end_point="26.458333,296.99999"
       center_point="26.458333,270.54165"
       id="path-effect828"
       is_visible="true"
       mode="vertical"
       discard_orig_path="false"
       fuse_paths="true"
       oposite_fuse="true" />
    <inkscape:path-effect
       effect="mirror_symmetry"
       start_point="26.458333,244.08332"
       end_point="26.458333,296.99999"
       center_point="26.458333,270.54165"
       id="path-effect4588"
       is_visible="true"
       mode="vertical"
       discard_orig_path="false"
       fuse_paths="true"
       oposite_fuse="true" />
    <inkscape:path-effect
       effect="mirror_symmetry"
       start_point="26.458333,244.08332"
       end_point="26.458333,296.99999"
       center_point="26.458333,270.54165"
       id="path-effect4687"
       is_visible="true"
       mode="vertical"
       discard_orig_path="false"
       fuse_paths="false"
       oposite_fuse="false" />
    <linearGradient
       id="path3020_1_"
       gradientUnits="userSpaceOnUse"
       x1="312.69"
       y1="514.87817"
       x2="366.0466"
       y2="375.48019"
       gradientTransform="matrix(1,0,0,-1,-139.19,820.99)">
      <stop
         offset="0"
         style="stop-color:#4A4A4A"
         id="stop9" />
      <stop
         offset="0.5"
         style="stop-color:#333333;stop-opacity:0.498"
         id="stop11" />
      <stop
         offset="1"
         style="stop-color:#333333;stop-opacity:0"
         id="stop13" />
    </linearGradient>
    <linearGradient
       id="path3802_1_"
       gradientUnits="userSpaceOnUse"
       x1="-1770.6145"
       y1="514.87817"
       x2="-1717.2579"
       y2="375.4801"
       gradientTransform="rotate(180,-591.10005,410.495)">
      <stop
         offset="0"
         style="stop-color:#4A4A4A"
         id="stop17" />
      <stop
         offset="0.5"
         style="stop-color:#333333;stop-opacity:0.498"
         id="stop19" />
      <stop
         offset="1"
         style="stop-color:#333333;stop-opacity:0"
         id="stop21" />
    </linearGradient>
  </defs>
  <sodipodi:namedview
     id="base"
     pagecolor="#ffffff"
     bordercolor="#666666"
     borderopacity="1.0"
     inkscape:pageopacity="0.0"
     inkscape:pageshadow="2"
     inkscape:zoom="2.5"
     inkscape:cx="100"
     inkscape:cy="132"
     inkscape:document-units="mm"
     inkscape:current-layer="layer1"
     showgrid="false"
     units="px"
     inkscape:window-width="1299"
     inkscape:window-height="713"
     inkscape:window-x="67"
     inkscape:window-y="27"
     inkscape:window-maximized="1" />
  <metadata
     id="metadata865">
    <rdf:RDF>
      <cc:Work
         rdf:about="">
        <dc:format>image/svg+xml</dc:format>
        <dc:type
           rdf:resource="http://purl.org/dc/dcmitype/StillImage" />
        <dc:title></dc:title>
      </cc:Work>
    </rdf:RDF>
  </metadata>
  <g
     inkscape:label="Capa 1"
     inkscape:groupmode="layer"
     id="layer1"
     transform="translate(0,-244.08332)">
    <g
       id="layer1-3"
       transform="matrix(0.03505978,0,0,0.03505978,13.19708,252.19606)">
      <path
         style="fill:none;stroke:#000000;stroke-width:2.56150007"
         inkscape:connector-curvature="0"
         id="path3081"
         d="m 65.4417,989.1655 c 0,0 -76.5178,-14.3942 -97.7298,-62.1221 -21.2127,-47.7288 14.3942,-49.2427 -1.5152,-93.9413 -15.9096,-44.6986 -15.9096,-49.2427 -15.9096,-49.2427 0,0 57.5779,8.3337 62.122,46.2125 4.5457,37.8799 -31.061,65.9106 21.9702,97.7298 53.0312,31.8193 52.273,21.9703 52.273,21.9703 z" />
      <path
         style="fill:#ffffff;stroke:#000000;stroke-width:2.56150007"
         inkscape:connector-curvature="0"
         id="path3075"
         d="m 127.5586,570.9713 c 0,0 -71.2129,171.2172 -71.2129,275.7734 0,104.5485 16.6671,121.2164 16.6671,121.2164 l -172.9745,29.6753 c 0,0 -135.4225,34.729 -118.7548,105.942 16.6671,71.2129 37.1754,94.6892 37.1754,94.6892 0,0 13.6288,66.428 95.3808,37.3291 90.2066,-32.1113 243.7852,-121.4213 243.7852,-121.4213 0,0 113.8776,67.427 227.517,62.8802 113.6394,-4.5457 212.8856,-63.6384 212.8856,-63.6384 l 235.6115,125.7605 c 0,0 68.2082,34.8136 96.9715,-22.7279 7.3283,-14.6597 32.0549,-95.8344 40.9102,-140.9119 8.8554,-45.0802 -57.642,-63.4695 -80.3063,-69.6991 -116.4341,-31.9985 -198.4899,-43.9404 -198.4899,-43.9404 0,0 22.7279,-59.0918 -4.5457,-184.8522 C 658.3473,639.4951 616.9659,570.9793 616.9659,570.9793 Z" />
      <path
         style="fill:none;stroke:#000000;stroke-width:2.56150007"
         inkscape:connector-curvature="0"
         id="path2999"
         d="M 219.3379,-5.5762 C 247.9245,-77.683 335.298,-87.2631 335.298,-87.2631 l -38.8301,-106.8795 c 57.2551,-27.1316 80.1244,-37.1241 145.7097,-4.2857 l -42.1217,112.4201 c 0,0 93.2343,3.3353 119.2619,80.4318 38.8839,-111.4724 82.8217,-97.863 132.8533,-102.8554 50.0317,-4.9909 145.7097,4.2857 145.7097,4.2857 0,0 -38.451,102.5685 -115.7117,148.9244 -42.8568,25.7125 -119.9971,9.6426 -119.9971,9.6426 0,0 207.6473,367.143 94.2846,505.6958 -115.7117,141.4243 -472.3192,130.2176 -561.4089,0 -111.5901,-163.1049 98.5699,-509.9991 98.5699,-509.9991 0,0 -51.4276,25.7125 -128.5679,-8.5714 C 8.5681,16.4436 -37.8057,-117.0223 -37.8057,-117.0223 c 0,0 89.9991,0 141.4242,17.1424 51.4277,17.1425 78.5644,33.538 115.7117,94.2845 z" />
      <path
         style="stroke:#000000;stroke-width:2.51300001"
         inkscape:connector-curvature="0"
         id="path3001"
         d="M 65.0574,449.5296 C 95.3653,162.4086 661.8921,152.2905 690.7605,446.1148 719.6187,739.947 34.7546,736.6684 65.0574,449.5296 Z" />
      <path
         style="stroke:#000000;stroke-width:6.56139994"
         inkscape:connector-curvature="0"
         id="path3003"
         d="m 8.7552,-107.2174 c -15.4526,0.3364 -28.4944,4.582 -35.8613,16.9701 0,0 19.3408,-18.1584 62.1963,-7.4443 42.8568,10.7142 55.6875,29.9699 89.9735,28.8966 34.286,-1.0714 44.9855,3.2019 44.9855,3.2019 0,0 -25.646,-17.6943 -57.875,-31.0585 -23.6308,7.0171 -69.4249,-11.3066 -103.4215,-10.5663 z m 669.7613,5.0462 c -22.4025,0.3433 -46.3712,3.9693 -60.7567,15.6094 -28.9196,23.4023 -55.9334,14.3857 -64.2789,14.8888 -23.3434,27.2881 -28.7377,56.433 -28.7377,56.433 0,0 63.1185,-12.5694 83.3289,-34.9802 44.6473,-49.4886 125.4377,-47.465 125.4377,-47.465 0,0 -26.189,-4.924 -54.9933,-4.4827 z m 115.1097,9.846 c 0,0 -11.6616,13.0738 -49.3093,21.3729 -44.4758,9.8039 -103.9005,41.7836 -103.9005,41.7836 0,0 46.1663,-16.8077 82.4503,-10.7264 22.816,3.8244 35.3798,6.4837 35.3798,6.4837 0,0 26.8089,-29.9877 35.3798,-58.915 v 0.0012 z M 465.7513,-65.588 c -7.5052,9.9971 -52.506,34.3346 -116.79,15.0489 -64.2942,-19.2883 -110.3248,24.565 -110.3248,24.565 0,0 34.2783,-18.1461 92.1354,-10.6462 57.8545,7.4998 66.3716,28.8837 118.87,18.171 52.4984,-10.7141 54.6731,-16.0894 54.6731,-16.0894 0,0 -13.9352,-16.4132 -38.5817,-31.0585 z m -428.0304,7.2747 c -28.3484,0.5721 -47.7083,6.6441 -47.7083,6.6441 l 20.4123,34.3398 c 0,0 34.2655,-17.1916 95.3373,-1.1207 61.0693,16.071 98.5392,-1.0406 98.5392,-1.0406 0,0 -24.6488,2.1304 -88.9335,-24.6547 C 87.2423,-55.8638 59.77,-58.7588 37.723,-58.3136 Z m 232.138,56.4329 c -38.5586,0.3453 -82.8781,14.1176 -99.8199,27.3775 -24.6424,19.2852 -44.9855,32.0985 -44.9855,32.0985 0,0 58.8971,1.1083 70.6826,-9.6057 11.7855,-10.714 -10.7264,17.1302 -10.7264,17.1302 0,0 32.2162,-31.0585 78.2853,-31.0585 46.0715,0 83.521,23.6018 124.2339,26.8166 40.7129,3.2142 161.7755,-18.2508 161.7755,-18.2508 0,0 -195.0087,-13.953 -233.5802,-35.3799 C 303.6709,0.5512 287.3835,-2.035 269.8576,-1.8779 Z M 691.4599,2.362 C 678.2051,2.5889 660.3784,5.6221 637.1864,14.7695 603.8585,27.9162 533.2039,9.4062 533.2039,9.4062 c 0,0 26.9037,25.6946 90.0529,25.6946 13.9283,0 55.2034,2.8386 50.3493,12.8875 38.0027,-23.1646 49.2299,-38.5817 49.2299,-38.5817 0,0 -9.2871,-7.4225 -31.3787,-7.0442 z M 24.5931,5.4102 c 22.2868,28.6122 25.4551,26.4964 25.4551,26.4964 0,0 2.1793,0.4727 47.1474,1.1207 31.8525,0.4589 46.028,-24.6547 46.028,-24.6547 0,0 -24.6424,7.506 -69.6426,5.3633 C 34.2078,11.861 26.0263,6.6707 24.5919,5.411 Z m 237.5812,83.3289 c 0,0 142.5026,72.8497 228.2163,64.2788 85.7111,-8.5711 134.9615,33.2204 134.9615,33.2204 L 584.688,100.5067 c 0,0 -31.0662,22.4932 -133.919,22.4932 -102.8553,0 -188.5921,-34.2604 -188.5921,-34.2604 z m -52.127,3.1251 c -24.7776,0.7651 -46.4276,14.0085 -46.4276,14.0085 0,0 -4.8971,8.345 -9.6856,19.2913 92.7092,-32.9822 129.6771,-2.1613 129.6771,-2.1613 0,0 -17.8315,-29.0272 -68.6001,-31.0585 -1.674,-0.0668 -3.311,-0.1312 -4.963,-0.0799 z m 18.7312,64.2788 c -18.2186,0.1258 -33.5303,1.6933 -42.9055,5.4432 -42.8287,17.1622 -68.5719,47.1833 -68.5719,47.1833 l -18.171,46.028 c 0,0 50.3441,-72.8446 114.6281,-72.8446 64.284,0 182.1089,-8.5652 182.1089,-8.5652 0,0 -101.9921,-17.6599 -167.0599,-17.2104 z m 274.1854,39.6268 c -86.1466,0.5297 -154.6314,11.847 -180.7461,11.847 -27.8565,0 -113.5881,5.3633 -113.5881,5.3633 0,0 287.1723,4.2795 341.8096,8.5653 49.55,3.8864 110.3043,62.1963 110.3043,62.1963 l -18.171,-53.6331 c 0,0 -27.8694,-33.1896 -122.1539,-34.2604 -5.8928,-0.0668 -11.7072,-0.1153 -17.4504,-0.0799 z m -275.0563,40.8306 c 0,0 -83.5825,2.149 -108.2243,19.2913 -24.6424,17.1425 -36.4223,43.8661 -36.4223,43.8661 l -9.0452,43.3051 c 4.3764,-17.4347 19.0341,-58.6255 62.5985,-77.5655 24.6424,-10.7141 91.0929,-28.8965 91.0929,-28.8965 z M 74.2162,343.0625 c -1.2508,4.9832 -1.681,8.1649 -1.681,8.1649 z" />
      <path
         style="fill:#ffffff;stroke:#000000;stroke-width:11.21539974"
         inkscape:connector-curvature="0"
         id="path3008"
         d="m 316.1379,27.6724 c -32.3648,0.0128 -66.0002,41.138 -80.127,72.1222 -15.3125,33.5867 -19.2311,86.1901 8.6451,110.3862 28.7608,24.962 90.3808,22.6936 114.0672,-7.1241 36.2968,-45.6873 25.2771,-150.7866 -28.8171,-172.662 -4.5101,-1.8239 -9.1447,-2.7234 -13.7682,-2.7216 z m 129.2774,0 c -4.6235,-0.0017 -9.2581,0.8977 -13.7682,2.7216 -54.0943,21.8759 -65.114,126.9747 -28.8171,172.662 23.6884,29.8186 85.3064,32.0856 114.0672,7.1241 27.877,-24.1946 23.9577,-76.7995 8.6451,-110.3862 -14.1273,-30.9867 -47.7647,-72.112 -80.127,-72.1222 z" />
      <path
         style="stroke:#000000;stroke-width:4.87150002"
         inkscape:connector-curvature="0"
         id="path3013"
         d="m 343.8279,96.0395 c -14.0574,0.0052 -28.6839,17.84 -34.8213,31.2992 -6.651,14.5879 -8.3457,37.4392 3.7624,47.9491 12.492,10.8421 39.2604,9.9095 49.5501,-3.0418 15.7651,-19.8444 10.9282,-65.5032 -12.5673,-75.004 -1.959,-0.7922 -3.9153,-1.2015 -5.9235,-1.2007 z m 73.6438,0 c -2.0081,-8e-4 -3.9644,0.4085 -5.9235,1.2007 -23.4958,9.5017 -28.333,55.1598 -12.5673,75.004 10.2888,12.9513 37.0576,13.884 49.55,3.0418 12.1081,-10.5089 10.4131,-33.3612 3.7624,-47.9491 -6.1362,-13.4588 -20.7635,-31.2942 -34.8214,-31.2992 z" />
      <linearGradient
         id="linearGradient878"
         gradientUnits="userSpaceOnUse"
         x1="312.69"
         y1="514.87817"
         x2="366.0466"
         y2="375.48019"
         gradientTransform="matrix(1,0,0,-1,-139.19,820.99)">
        <stop
           offset="0"
           style="stop-color:#4A4A4A"
           id="stop872" />
        <stop
           offset="0.5"
           style="stop-color:#333333;stop-opacity:0.498"
           id="stop874" />
        <stop
           offset="1"
           style="stop-color:#333333;stop-opacity:0"
           id="stop876" />
      </linearGradient>
      <path
         style="fill:url(#path3020_1_)"
         inkscape:connector-curvature="0"
         id="path3020"
         d="m 166.0071,439.7445 c -11.4741,-20.4783 -12.7666,-52.7494 -2.715,-75.9748 16.7649,-38.7379 85.6394,-35.7845 90.6369,22.8992 26.7525,-67.0606 -68.4387,-91.3183 -96.7897,-44.5295 -14.2549,23.5258 -21.9589,69.9373 8.8664,97.6042 z" />
      <linearGradient
         id="linearGradient887"
         gradientUnits="userSpaceOnUse"
         x1="-1770.6145"
         y1="514.87817"
         x2="-1717.2579"
         y2="375.4801"
         gradientTransform="rotate(180,-591.10005,410.495)">
        <stop
           offset="0"
           style="stop-color:#4A4A4A"
           id="stop881" />
        <stop
           offset="0.5"
           style="stop-color:#333333;stop-opacity:0.498"
           id="stop883" />
        <stop
           offset="1"
           style="stop-color:#333333;stop-opacity:0"
           id="stop885" />
      </linearGradient>
      <path
         style="fill:url(#path3802_1_)"
         inkscape:connector-curvature="0"
         id="path3802"
         d="m 595.9074,439.7445 c 11.4741,-20.4783 12.7666,-52.7494 2.715,-75.9748 -16.7649,-38.7379 -85.6393,-35.7845 -90.6369,22.8992 -26.7525,-67.0606 68.4388,-91.3183 96.7897,-44.5295 14.2549,23.5258 21.9589,69.9373 -8.8665,97.6042 z" />
      <path
         style="fill:none;stroke:#ff0000;stroke-width:2.63089991;stroke-linecap:round;stroke-linejoin:round"
         inkscape:connector-curvature="0"
         id="path3832"
         d="m 307.0701,523.4294 c 0,0 -9.3114,63.3439 76.1106,63.3439 84.2075,0 75.3011,-62.1578 75.3011,-62.1578" />
      <path
         style="stroke:#000000;stroke-width:2.56150007"
         inkscape:connector-curvature="0"
         id="path3834"
         d="m 72.5627,351.1927 c 0,0 8.2701,-61.3587 64.284,-85.7111 24.6424,-10.7141 91.0698,-28.9273 91.0698,-28.9273 0,0 -83.5697,2.1428 -108.2115,19.2852 C 95.0627,272.982 83.2776,299.767 83.2776,299.767 Z" />
      <path
         style="stroke:#000000;stroke-width:2.56150007"
         inkscape:connector-curvature="0"
         id="path3844"
         d="m 330.5849,-82.0888 c 0,0 1.5152,13.6368 40.9101,12.1217 39.3962,-1.5152 42.4265,-9.0911 42.4265,-9.0911 l 31.8192,-130.3072 -0.0753,-0.0523 -0.2257,-0.1522 -0.3755,-0.2451 -1.2824,4.2137 0.084,-4.9573 -2.3369,4.4393 -0.2116,-0.5515 -0.3587,-5.5359 -1.2628,-0.6647 -2.5451,3.4555 -0.4178,-4.9181 -1.699,-0.7846 -2.9796,4.113 -0.8505,-5.7555 -2.1301,-0.8445 -4.1665,4.8308 -0.5208,-6.5332 -2.5562,-0.8445 -4.5912,4.8508 -0.9435,-6.4932 -2.9776,-0.7846 -4.2531,4.173 -2.119,-5.6358 -3.3935,-0.6647 -4.2887,4.6917 -2.9106,-5.8546 -3.8046,-0.4849 -3.9406,5.2703 -4.0762,-6.0137 -4.2108,-0.2451 -4.724,5.9087 -4.0999,-6.1131 -4.0082,-0.1698 -3.2211,6.028 -4.7003,-5.9653 -3.9002,0.2152 -3.4727,6.0081 -4.175,-5.2534 -3.7347,0.5224 -2.5302,7.0473 -4.7286,-5.7555 -3.5113,0.752 -1.1513,6.8721 -5.6033,-5.1989 -3.2303,0.9041 -0.4724,8.1346 -5.6627,-6.235 -2.892,0.9784 -0.4934,7.0468 -4.9068,-5.0759 -2.4957,0.9751 0.6795,6.2599 -5.2298,-4.3733 -2.0418,0.8942 0.7738,7.2896 -4.3589,-5.6425 -1.5305,0.7357 2.062,6.3474 -1.1575,0.5868 -4.3705,-5.1824 -0.7589,0.4035 -0.55,0.2989 -0.3347,0.1857 -0.1129,0.0638 z" />
      <path
         style="stroke:#000000;stroke-width:6.68669987"
         inkscape:connector-curvature="0"
         id="path3123"
         d="m 111.1392,618.0264 -28.894,92.1124 c 0,0 137.1285,11.7607 198.1978,-7.5245 61.0693,-19.2852 226.0544,-1.0406 226.0544,-1.0406 0,0 -66.3998,-11.2502 -109.2643,-16.0894 -66.428,-7.4999 -158.6044,5.3384 -213.2467,-2.1613 -54.6424,-7.4999 -72.8446,-65.3188 -72.8446,-65.3188 z m 537.8429,22.4933 c 0,0 -54.6859,79.2279 -176.8245,91.0135 -122.141,11.7856 -136.0552,4.3287 -156.4117,9.6856 -20.3567,5.3569 -18.171,9.6057 -18.171,9.6057 0,0 42.8517,-6.3977 175.705,-1.0406 132.8533,5.3569 199.2378,-32.1779 199.2378,-32.1779 l -23.566,-77.0763 z m -544.093,105.4834 c -20.0972,-0.0385 -34.5011,1.601 -34.5011,1.601 l -6.4038,36.4223 c 0,0 46.0818,-38.5894 136.0809,-2.1613 89.9991,36.4281 162.8155,-3.2019 162.8155,-3.2019 0,0 -24.5993,7.4937 -59.955,8.5652 -35.3567,1.0715 -63.244,-3.1958 -110.3862,-25.6946 -26.5169,-12.6559 -61.8121,-15.4798 -87.6527,-15.5292 z m 540.4813,11.3668 c -20.2161,0.051 -42.9465,1.1208 -53.1516,5.2029 -10.7072,4.3033 -68.5976,30.021 -68.5976,30.021 0,0 88.8849,-24.587 115.6682,-21.3729 26.7858,3.2142 51.4712,18.171 51.4712,18.171 l -7.5245,-31.0585 c 0,0 -17.6466,-1.0114 -37.8619,-0.9606 z M 70.949,822.8475 c -8.0673,0.1506 -12.3273,0.8005 -12.3273,0.8005 v 73.964 c 0,0 70.0935,-28.94 144.6466,3.2019 106.4928,45.9128 201.3997,3.2019 201.3997,3.2019 0,0 -60.0959,18.2199 -169.1399,-36.4223 C 153.7438,826.6117 95.1515,822.3954 70.9503,822.8463 Z m 418.399,0.333 c -80.606,1.0905 -170.3412,26.1762 -170.3412,26.1762 0,0 80.3421,-19.0288 156.4117,8.0847 76.0696,27.1135 34.268,-0.2961 123.1939,12.3273 63.8024,9.0571 101.7411,12.4874 101.7411,12.4874 0,0 2.1367,-30.459 -5.3633,-55.3135 0,0 -47.1167,32.0753 -131.7596,4.963 -21.1326,-6.7881 -47.004,-9.0933 -73.8743,-8.7347 z m 201.159,93.3368 c -8.481,-0.1583 -24.0537,4.6564 -52.2704,24.5748 -54.6424,38.5714 -181.0484,20.326 -220.6905,28.8965 -18.7339,4.0505 -31.4632,4.9381 -39.7036,4.8029 31.6348,4.0687 169.2193,21.4781 248.6266,25.2151 91.0698,4.2857 108.2243,-30.0184 108.2243,-30.0184 l -39.7036,-9.6057 c 0,0 4.2919,-7.5121 5.3633,-38.5817 0,0 -1.3649,-5.1248 -9.846,-5.2831 v -4e-4 z m -312.6595,58.2746 c -4.0413,-0.5198 -12.8076,-1.601 -12.8076,-1.601 0,0 3.6112,1.4502 12.8076,1.601 z M 172.3878,934.2686 c -49.7627,0.2075 -97.8988,21.7729 -97.8988,21.7729 27.959,-13.1053 105.0378,17.8164 130.3969,29.0579 -4.8892,-7.8825 83.4928,-7.2742 23.8542,-38.6636 -17.1761,-9.0399 -36.8808,-12.2484 -56.3535,-12.1672 h 0.001 z m 32.5006,50.8309 c 0.7157,1.1539 3.4127,2.5207 8.8854,4.1625 -0.4699,-0.3154 -4.2303,-2.0993 -8.8854,-4.1625 z M 51.1176,973.1725 -3.074,981.1773 c 0,0 25.2576,-3.0782 30.979,14.8889 10.3854,32.6184 30.4975,57.0732 30.4975,57.0732 0,0 -1.6963,-15.7971 -7.3644,-44.1068 -4.0062,-20.0095 0.0799,-35.8613 0.0799,-35.8613 z m 702.4975,0.8005 c 0,0 13.959,23.5465 -1.0406,62.1169 -14.9996,38.5704 -33.2203,69.6426 -33.2203,69.6426 0,0 55.7388,-37.4879 77.1658,-72.8445 21.4282,-35.3567 19.2913,-44.9855 19.2913,-44.9855 l -62.1964,-13.9283 z m -670.709,15.5293 c 0,0 14.2303,38.6584 14.9691,58.915 1.3349,36.6145 -19.2913,108.2244 -19.2913,108.2244 0,0 22.3355,-9.0415 34.2604,-18.171 7.6021,-30.0261 8.596,-39.6472 7.5245,-75.0039 -0.987,-32.5698 -37.4623,-73.964 -37.4623,-73.964 z m -178.4255,6.9643 c -78.3672,18.2641 -168.9503,22.9453 -105.8216,180.5873 45.1289,112.6942 107.1459,76.3539 186.5096,26.5758 -6.8308,-81.3259 -16.393,-133.4656 -80.688,-207.1631 z m 947.5328,0 c -64.2941,73.6975 -73.777,125.8373 -80.6085,207.1631 79.3662,49.7781 141.3013,86.1184 186.4302,-26.5758 63.1288,-157.6412 -27.4569,-162.3237 -105.8217,-180.5873 z m -907.9829,2.2413 c 9.8281,6.9423 50.211,38.1897 66.4408,92.8552 20.3567,68.5693 -11.7671,107.1024 -11.7671,107.1024 l 67.4807,-35.3799 c 0,0 -17.4399,-51.0178 -37.5417,-87.8115 -18.194,-33.3022 -74.0767,-70.0243 -84.6097,-76.7662 z m 783.2368,17.2646 c -21.4929,25.9688 -47.2448,24.7003 -68.6796,52.0297 -22.1267,28.2125 -3.2019,75.0039 -3.2019,75.0039 0,0 17.799,6.8918 46.1074,25.6947 -25.1285,-41.9578 -19.0065,-55.79 -13.9347,-83.5569 4.5411,-24.8151 34.2399,-62.3935 39.7036,-69.1611 z m -460.7667,8.725 c 0,0 39.1888,69.4967 84.6096,70.6826 63.2133,4.2858 71.8021,47.1475 71.8021,47.1475 l 46.028,-73.8845 c 0,0 -25.1821,-18.6882 -86.7716,6.4038 -28.9273,11.7853 -115.6681,-50.3494 -115.6681,-50.3494 z m 493.8872,90.4525 c 0,0 -18.4722,22.1831 -23.6142,35.3798 -4.1989,10.7778 -5.2831,34.2604 -5.2831,34.2604 l 25.7176,14.9594 c 0,0 -8.8573,-26.1071 -8.5652,-39.6241 0.3351,-15.5018 11.7672,-44.9855 11.7672,-44.9855 z" />
      <path
         style="fill:#ffffff;stroke:#000000;stroke-width:2.56150007"
         inkscape:connector-curvature="0"
         id="path3077"
         d="m 341.5738,813.3938 36.3634,354.5659 c 0,0 6.0608,101.5183 -112.123,103.0322 -118.1861,1.515 -142.4283,-40.9102 -143.9422,-110.6093 -1.5152,-69.6991 65.1523,-357.5884 65.1523,-357.5884" />
      <path
         style="fill:#ffffff;stroke:#000000;stroke-width:2.56150007"
         inkscape:connector-curvature="0"
         id="path3079"
         d="m 424.644,813.3938 -36.3634,354.5659 c 0,0 -6.0608,101.5183 112.123,103.0322 118.1861,1.515 142.4283,-40.9102 143.9422,-110.6093 1.5152,-69.6991 -65.1523,-357.5884 -65.1523,-357.5884" />
      <path
         style="stroke:#000000;stroke-width:6.56139994"
         inkscape:connector-curvature="0"
         id="path3083"
         d="m -105.7961,726.2508 c 0,0 11.3668,71.9685 32.58,94.6969 21.2127,22.7278 37.867,19.0169 60.5954,9.9259 0,0 39.4244,-28.8633 7.6046,-62.1964 -31.8198,-33.3331 -100.7806,-42.424 -100.7806,-42.424 z m 113.0272,92.056 c 0,0 -4.2795,12.9247 -8.5652,17.2104 -4.2857,4.2856 -23.0537,9.0452 -23.0537,9.0452 0,0 10.1413,4.8828 16.57,4.8828 6.4284,0 17.6904,-1.1207 17.6904,-1.1207 0,0 9.1439,-16.0897 -2.6415,-30.0184 z m -39.7036,53.6331 c -9.6426,13.9283 -4.8029,30.4975 -4.8029,30.4975 0,0 11.7917,-10.1968 19.2913,-9.1254 7.4999,1.0714 14.969,-17.1302 14.969,-17.1302 0,0 -18.7373,4.3041 -24.0942,2.1613 -5.3569,-2.1428 -5.3633,-6.4038 -5.3633,-6.4038 v 6e-4 z m 40.1852,31.0585 c 0,0 0.4968,9.9446 -5.8434,17.1301 -8.0355,9.107 -32.7388,9.6057 -32.7388,9.6057 l 6.4837,8.6451 c 0,0 31.0226,4.7783 40.6642,-2.7216 9.6426,-7.4999 -1.0406,-22.4932 -1.0406,-22.4932 L 7.7133,902.9983 h -6e-4 z m 38.0232,32.0984 c 0,0 4.3533,10.7817 -10.6462,17.2104 -14.9998,6.4283 -30.5795,8.5652 -30.5795,8.5652 0,0 35.4335,5.2751 45.5464,2.0812 10.1782,-3.2143 11.7671,-19.2913 11.7671,-19.2913 l -16.0894,-8.5652 z" />
      <path
         style="fill:#808080;stroke:#000000;stroke-width:6.56139994"
         inkscape:connector-curvature="0"
         id="path3091"
         d="m -102.5942,729.2735 c 0,0 25.7484,33.3639 50.7489,50.0291 25.0007,16.6671 39.4628,46.9886 39.4628,46.9886 0,0 2.4739,-23.2997 -18.9712,-39.3834 -24.243,-18.1823 -71.2411,-57.6343 -71.2411,-57.6343 z m 25.6152,12.8875 c 0,0 16.624,6.8669 41.6247,23.534 25.0007,16.6671 25.0548,36.3428 25.0548,36.3428 0,0 6.015,-13.6824 -12.1672,-33.3792 -18.1822,-19.6976 -54.5118,-26.4964 -54.5118,-26.4964 z m -10.0058,22.0133 c 0,0 9.637,35.718 30.6589,52.3524 21.0214,16.634 34.099,9.5258 34.099,9.5258 0,0 -19.5852,1.4896 -38.1026,-22.173 -18.5175,-23.6628 -26.6552,-39.7036 -26.6552,-39.7036 z" />
      <path
         style="fill:#999999;stroke:#000000;stroke-width:6.56139994"
         inkscape:connector-curvature="0"
         id="path3099"
         d="m 366.8048,-217.286 6.4837,142.4847 1.681,-142.0057 -8.1649,-0.4803 z m -51.3893,9.4456 -7.5245,3.0418 37.8619,130.3175 -30.3387,-133.358 z m 104.7022,0 -30.2567,133.358 37.8619,-130.3175 -7.6047,-3.0418 z" />
      <path
         style="stroke:#000000;stroke-width:6.56139994"
         inkscape:connector-curvature="0"
         id="path3107"
         d="m 187.1909,809.7308 -6.4038,25.7741 c 0,0 26.8166,14.9503 40.7436,12.8076 13.9283,-2.1429 56.7531,-25.6946 56.7531,-25.6946 0,0 -46.0639,8.6082 -64.2788,4.3226 -18.238,-4.2777 -26.8191,-17.2134 -26.8191,-17.2134 z m 108.0654,47.1474 c -11.2592,0.1817 -23.1765,4.1251 -34.099,15.049 -32.3777,32.3777 -91.4617,35.1006 -96.1365,31.6989 -0.2052,6.3572 -6.724,43.3051 -6.724,43.3051 0,0 58.641,-5.343 85.7316,-12.8875 27.0906,-7.5446 31.9729,-36.4709 48.1874,-49.3093 16.217,-12.8384 49.3093,-10.7263 49.3093,-10.7263 0,0 -21.4971,-17.5298 -46.2662,-17.1302 z M 165.0029,903.626 c 0.0292,-0.9082 -0.0522,-1.176 -0.3202,-0.6404 -0.1194,0.2385 0.0448,0.44 0.3202,0.6404 z m 190.4338,49.709 c 0,0 -9.6674,11.761 -49.3093,20.3321 -39.6419,8.5711 -93.2548,3.2019 -93.2548,3.2019 0,0 34.2962,6.4283 80.3678,13.9283 46.0716,7.5 70.7621,45.0674 70.7621,45.0674 l -8.5652,-82.5297 z m -138.6424,70.5213 c -9.5963,-0.1765 -18.2639,1.1346 -25.295,4.4826 -44.9803,21.4143 -51.461,2.1519 -51.461,2.1519 l -10.7328,54.5859 c 0,0 39.7036,-32.1112 109.3462,-28.8965 69.6402,3.2142 109.2643,12.8076 109.2643,12.8076 0,0 -79.2996,-44.194 -131.1192,-45.1469 z m 29.2014,73.5413 c -37.2701,-0.2111 -76.1156,6.0778 -118.952,22.4133 -9.9564,79.8478 -19.2783,155.7406 138.563,152.3312 121.3675,-2.6217 115.8756,-74.8475 104.7022,-154.4111 -41.7938,-11.5325 -82.0737,-20.093 -124.3133,-20.332 v 0 z" />
      <path
         style="stroke:#000000;stroke-width:6.56139994"
         inkscape:connector-curvature="0"
         id="path3109"
         d="m 568.6016,842.9537 c 0,0 -25.7151,24.6792 -83.5697,18.2509 -57.8648,-6.4551 -63.244,-5.3792 -63.244,-5.3792 l -5.2831,49.3093 c 0,0 20.8982,-17.5804 58.915,-16.0894 54.6424,2.1428 93.1754,-46.1074 93.1754,-46.1074 z m 28.8965,42.9056 c -18.1315,31.3966 -29.5574,31.1813 -50.2699,33.1409 -22.9725,0.4507 -61.1563,22.5734 -61.1563,22.5734 0,0 42.219,-11.0176 58.9944,-10.086 26.0584,1.4473 43.8635,12.5927 61.077,-1.761 l -8.6451,-43.8661 v -10e-4 z m -96.8563,92.6963 c -4.5818,0.0153 -9.4236,0.1644 -14.5687,0.4803 -41.1611,2.5263 -79.2484,13.9283 -79.2484,13.9283 l -5.3536,57.8392 c 0,0 32.183,-30.0209 75.004,-48.1874 35.3567,-14.9997 102.8605,-3.2818 102.8605,-3.2818 -26.9036,-13.7819 -46.6146,-20.9243 -78.6874,-20.8124 z m 61.9581,58.7562 c -57.4421,0.059 -121.5135,49.9497 -121.5135,49.9497 0,0 47.9825,-13.698 110.3862,-10.7264 67.4987,3.2142 86.7716,24.6547 86.7716,24.6547 l -6.4038,-41.7836 c 0,0 2.1241,-13.9528 -57.8751,-21.4528 -3.7498,-0.4688 -7.5373,-0.6443 -11.3667,-0.6404 z m -42.2652,60.1163 c -42.2395,0.239 -82.44,8.7996 -124.2338,20.3322 -11.1744,79.5634 -16.7446,151.7906 104.6228,154.4111 157.841,3.4097 148.5196,-72.4834 138.563,-152.3312 -42.8363,-16.3357 -81.6793,-22.6244 -118.952,-22.4133 z" />
    </g>
  </g>
</svg>
