<?xml version="1.0" encoding="UTF-8" standalone="no"?>
<!-- Created with Inkscape (http://www.inkscape.org/) -->

<svg
   xmlns:dc="http://purl.org/dc/elements/1.1/"
   xmlns:cc="http://creativecommons.org/ns#"
   xmlns:rdf="http://www.w3.org/1999/02/22-rdf-syntax-ns#"
   xmlns:svg="http://www.w3.org/2000/svg"
   xmlns="http://www.w3.org/2000/svg"
   xmlns:sodipodi="http://sodipodi.sourceforge.net/DTD/sodipodi-0.dtd"
   xmlns:inkscape="http://www.inkscape.org/namespaces/inkscape"
   width="200"
   height="200"
   viewBox="0 0 52.916665 52.916668"
   version="1.1"
   id="svg168"
   inkscape:version="0.92.3 (2405546, 2018-03-11)"
   sodipodi:docname="hipopotamo.svg">
  <defs
     id="defs162" />
  <sodipodi:namedview
     id="base"
     pagecolor="#ffffff"
     bordercolor="#666666"
     borderopacity="1.0"
     inkscape:pageopacity="0.0"
     inkscape:pageshadow="2"
     inkscape:zoom="2.5"
     inkscape:cx="100"
     inkscape:cy="116"
     inkscape:document-units="mm"
     inkscape:current-layer="layer1"
     showgrid="false"
     units="px"
     inkscape:window-width="1299"
     inkscape:window-height="713"
     inkscape:window-x="67"
     inkscape:window-y="27"
     inkscape:window-maximized="1" />
  <metadata
     id="metadata165">
    <rdf:RDF>
      <cc:Work
         rdf:about="">
        <dc:format>image/svg+xml</dc:format>
        <dc:type
           rdf:resource="http://purl.org/dc/dcmitype/StillImage" />
        <dc:title></dc:title>
      </cc:Work>
    </rdf:RDF>
  </metadata>
  <g
     inkscape:label="Capa 1"
     inkscape:groupmode="layer"
     id="layer1"
     transform="translate(0,-244.08332)">
    <g
       transform="matrix(0.19155241,0,0,0.19155241,5.0931522,244.17063)"
       id="g236">
      <g
         id="g238">
        <path
           inkscape:connector-curvature="0"
           d="M 221.074,147.271 C 221.092,207.779 172.046,256.84 111.536,256.84 51.028,256.841 1.981,207.779 2,147.271 1.981,86.763 51.028,37.702 111.536,37.702 c 60.509,0 109.555,49.061 109.538,109.569 z"
           style="fill:#939dac;stroke:#010101;stroke-width:4;stroke-linecap:round;stroke-linejoin:round"
           id="path2383_2_" />
        <path
           inkscape:connector-curvature="0"
           d="m 220.652,156.858 c -20.835,45.696 -66.936,77.469 -120.438,77.469 -30.327,0 -58.251,-10.211 -80.563,-27.375 19.534,30.03 53.378,49.875 91.875,49.875 57.279,0 104.286,-43.948 109.126,-99.969 z"
           style="fill:#010101;fill-opacity:0.3137"
           id="path3353" />
      </g>
      <g
         id="g242">
        <g
           id="g244">
          <path
             inkscape:connector-curvature="0"
             d="m 14.479,247.771 c -0.007,22.68 18.377,25.569 41.057,25.569 22.681,0 41.063,-2.89 41.058,-25.569 0.006,-22.68 -19.15,-35.199 -41.058,-41.069 -34.08,-9.132 -41.063,18.39 -41.057,41.069 z"
             style="fill:#939dac;stroke:#010101;stroke-width:4;stroke-linecap:round;stroke-linejoin:round"
             id="path3245" />
          <path
             inkscape:connector-curvature="0"
             d="m 68.531,211.193 c 5.617,7.362 9.065,16.555 9.063,27.906 0.007,26.823 -18.383,30.25 -41.063,30.25 -3.51,0 -6.904,-0.105 -10.156,-0.344 7.439,3.611 17.751,4.344 29.156,4.344 22.68,0 41.069,-2.913 41.063,-25.594 0.005,-18.023 -12.1,-29.609 -28.063,-36.562 z"
             style="fill:#010101;fill-opacity:0.3137"
             id="path3297" />
          <g
             id="g248">
            <path
               inkscape:connector-curvature="0"
               d="m 87.495,260.562 c 1.644,6.127 -3.251,8.274 -9.547,9.962 -6.296,1.688 -11.607,2.273 -13.248,-3.854 -1.644,-6.127 2.129,-12.462 8.424,-14.149 6.296,-1.689 12.73,1.913 14.371,8.041 z"
               style="fill:#ffffff;stroke:#010101;stroke-width:4;stroke-linecap:round;stroke-linejoin:round"
               id="path3239" />
            <path
               inkscape:connector-curvature="0"
               d="m 46.054,267.199 c -1.641,6.129 -6.952,5.541 -13.248,3.855 -6.296,-1.688 -11.19,-3.836 -9.547,-9.963 1.641,-6.127 8.075,-9.729 14.371,-8.041 6.295,1.687 10.067,8.022 8.424,14.149 z"
               style="fill:#ffffff;stroke:#010101;stroke-width:4;stroke-linecap:round;stroke-linejoin:round"
               id="path3241" />
            <path
               inkscape:connector-curvature="0"
               d="m 66.336,266.189 c 0.002,6.344 -5.281,7.151 -11.8,7.151 -6.518,0 -11.801,-0.808 -11.799,-7.151 -0.002,-6.344 5.281,-11.487 11.799,-11.487 6.519,0 11.802,5.144 11.8,11.487 z"
               style="fill:#ffffff;stroke:#010101;stroke-width:4;stroke-linecap:round;stroke-linejoin:round"
               id="path3243" />
          </g>
        </g>
        <g
           id="g253">
          <path
             inkscape:connector-curvature="0"
             d="m 208.594,247.771 c 0.006,22.68 -18.377,25.569 -41.058,25.569 -22.68,0 -41.064,-2.89 -41.057,-25.569 -0.007,-22.68 19.151,-35.199 41.057,-41.069 34.082,-9.132 41.064,18.39 41.058,41.069 z"
             style="fill:#939dac;stroke:#010101;stroke-width:4;stroke-linecap:round;stroke-linejoin:round"
             id="path3220" />
          <g
             id="g256">
            <path
               inkscape:connector-curvature="0"
               d="m 200.496,260.562 c 1.644,6.127 -3.251,8.274 -9.547,9.962 -6.296,1.688 -11.607,2.273 -13.248,-3.854 -1.644,-6.127 2.129,-12.462 8.424,-14.149 6.295,-1.689 12.73,1.913 14.371,8.041 z"
               style="fill:#ffffff;stroke:#010101;stroke-width:4;stroke-linecap:round;stroke-linejoin:round"
               id="path3235_1_" />
            <path
               inkscape:connector-curvature="0"
               d="m 159.054,267.199 c -1.641,6.129 -6.952,5.541 -13.248,3.855 -6.296,-1.688 -11.19,-3.836 -9.547,-9.963 1.641,-6.127 8.075,-9.729 14.371,-8.041 6.295,1.687 10.068,8.022 8.424,14.149 z"
               style="fill:#ffffff;stroke:#010101;stroke-width:4;stroke-linecap:round;stroke-linejoin:round"
               id="path3237" />
            <path
               inkscape:connector-curvature="0"
               d="m 179.336,266.189 c 0.002,6.344 -5.281,7.151 -11.8,7.151 -6.518,0 -11.801,-0.808 -11.799,-7.151 -0.002,-6.344 5.281,-11.487 11.799,-11.487 6.519,0 11.802,5.144 11.8,11.487 z"
               style="fill:#ffffff;stroke:#010101;stroke-width:4;stroke-linecap:round;stroke-linejoin:round"
               id="path3224" />
          </g>
          <path
             inkscape:connector-curvature="0"
             d="m 186.058,205.515 c 10.562,8.152 13.348,24.672 13.344,39.25 0.007,23.469 -19.008,26.469 -42.469,26.469 -5.091,0 -9.945,-0.165 -14.469,-0.625 6.935,2.22 15.622,2.719 25.063,2.719 22.68,0 41.069,-2.882 41.063,-25.563 0.004,-17.769 -4.287,-38.493 -22.532,-42.25 z"
             style="fill:#010101;fill-opacity:0.3137"
             id="path3358" />
        </g>
      </g>
      <g
         id="g262">
        <path
           inkscape:connector-curvature="0"
           d="m 213.788,122.771 c 7,42 -24.737,75.697 -91.921,83.25 -56.333,6.333 -111.348,-31.193 -111.333,-79 32,-48.667 121.965,-103.707 122.455,-55.903 0.211,20.57 56.799,-29.597 80.799,51.653 z"
           style="fill:#010101;fill-opacity:0.3137"
           id="path3307" />
        <path
           inkscape:connector-curvature="0"
           d="m 192.9,91.985 c -1.039,-14.407 -4.696,-27.927 -10.387,-39.897 6.41,-4.801 10.701,-13.3 10.701,-22.971 C 193.214,14.15 183.001,2 170.426,2 162.297,2 155.19,7.104 151.157,14.733 139.144,6.639 125.269,2 110.488,2 95.709,2 81.863,6.643 69.852,14.733 65.82,7.104 58.712,2 50.583,2 38.007,2 27.795,14.15 27.795,29.117 c 0,9.684 4.276,18.174 10.701,22.971 -5.691,11.97 -9.348,25.491 -10.387,39.899 -10.487,11.029 -16.604,24.279 -16.604,38.535 0,38.384 44.323,69.5 99,69.5 54.677,0 99,-31.116 99,-69.5 0,-14.256 -6.118,-27.507 -16.605,-38.537 z"
           style="fill:#939dac;stroke:#010101;stroke-width:4;stroke-linecap:round;stroke-linejoin:round"
           id="path265" />
        <g
           id="g267">
          <path
             inkscape:connector-curvature="0"
             d="m 163.071,138.894 c -3.86,7.963 -10.946,11.702 -15.825,8.35 -4.878,-3.352 -5.7,-12.521 -1.837,-20.482 3.862,-7.96 10.948,-11.698 15.825,-8.348 4.878,3.352 5.7,12.521 1.837,20.48 z"
             style="fill:#010101"
             id="path2398_2_" />
          <path
             inkscape:connector-curvature="0"
             d="m 57.941,138.894 c 3.86,7.963 10.948,11.702 15.825,8.35 4.876,-3.352 5.7,-12.521 1.835,-20.482 -3.858,-7.96 -10.946,-11.698 -15.823,-8.348 -4.878,3.352 -5.7,12.521 -1.837,20.48 z"
             style="fill:#010101"
             id="path2412_1_" />
        </g>
        <g
           id="g271">
          <path
             inkscape:connector-curvature="0"
             d="m 169.666,14.799 c -4.57,0 -8.562,2.865 -10.839,7.147 6.99,5.602 13.007,12.755 17.711,21.075 3.587,-2.712 5.978,-7.503 5.978,-12.931 -0.001,-8.438 -5.759,-15.291 -12.85,-15.291 z"
             style="fill:#e6e6e6;stroke:#010101;stroke-width:4;stroke-linecap:round;stroke-linejoin:round"
             id="path2483_3_" />
          <path
             inkscape:connector-curvature="0"
             d="m 49.493,14.799 c 4.57,0 8.562,2.865 10.839,7.147 -6.989,5.602 -13.007,12.755 -17.71,21.075 -3.588,-2.712 -5.979,-7.503 -5.979,-12.931 0,-8.438 5.759,-15.291 12.85,-15.291 z"
             style="fill:#e6e6e6;stroke:#010101;stroke-width:4;stroke-linecap:round;stroke-linejoin:round"
             id="path2523_3_" />
        </g>
        <g
           id="g275">
          <g
             id="g277">
            <path
               inkscape:connector-curvature="0"
               d="m 156.538,73.801 c 0.003,12.519 -10.145,22.669 -22.663,22.669 -12.52,0 -22.667,-10.15 -22.663,-22.669 -0.004,-12.519 10.144,-22.669 22.663,-22.669 12.518,0 22.666,10.15 22.663,22.669 z"
               style="fill:#ffffff;stroke:#010101;stroke-width:4;stroke-linecap:round;stroke-linejoin:round"
               id="path3159_1_" />
            <path
               inkscape:connector-curvature="0"
               d="m 136.392,77.801 c 0.002,4.173 -3.381,7.557 -7.554,7.557 -4.173,0 -7.556,-3.384 -7.555,-7.557 -0.001,-4.173 3.382,-7.557 7.555,-7.557 4.173,0 7.556,3.384 7.554,7.557 z"
               style="fill:#010101"
               id="path3161_1_" />
          </g>
          <g
             id="g281">
            <path
               inkscape:connector-curvature="0"
               d="M 103.805,73.801 C 103.809,86.32 93.66,96.47 81.142,96.47 68.624,96.47 58.476,86.32 58.479,73.801 58.476,61.282 68.624,51.132 81.142,51.132 c 12.518,0 22.667,10.15 22.663,22.669 z"
               style="fill:#ffffff;stroke:#010101;stroke-width:4;stroke-linecap:round;stroke-linejoin:round"
               id="path3157_1_" />
            <path
               inkscape:connector-curvature="0"
               d="m 94.362,77.801 c 0.002,4.173 -3.381,7.557 -7.554,7.557 -4.173,0 -7.556,-3.384 -7.555,-7.557 -0.001,-4.173 3.382,-7.557 7.555,-7.557 4.173,0 7.556,3.384 7.554,7.557 z"
               style="fill:#010101"
               id="path3163_1_" />
          </g>
        </g>
        <path
           inkscape:connector-curvature="0"
           d="m 207.538,117.021 c -4.93,47.578 -28.332,65.369 -82,71.333 -24,2.667 -39.333,5.334 -83.667,-7 40.667,21.334 47,16.667 79,17.667 24.501,0.766 64,-10.334 83.667,-45.667 11,-27 3.98,-31.113 3,-36.333 z"
           style="fill:#010101;fill-opacity:0.3137"
           id="path3302" />
        <path
           inkscape:connector-curvature="0"
           d="m 127.418,177.262 c 6.811,-1.1 15.261,-5.862 18.729,-9.961 3.561,-4.207 5.645,14.967 4.555,17.599 -0.999,2.414 -9.403,6.644 -11.862,6.31 -2.645,-0.359 -17.792,-12.921 -11.422,-13.948 z"
           style="fill:#ffffff;stroke:#010101;stroke-width:4;stroke-linejoin:round"
           id="path3225_1_" />
      </g>
    </g>
  </g>
</svg>
